<svg xmlns="http://www.w3.org/2000/svg" xmlns:xlink="http://www.w3.org/1999/xlink" width="46.303" height="46.303" viewBox="0 0 46.303 46.303">
  <defs>
    <clipPath id="clip-path">
      <path id="Path_7470" data-name="Path 7470" d="M0,0H46.3V46.3H0Z"/>
    </clipPath>
  </defs>
  <g id="_140-earphone-telephone-outline" data-name="140-earphone-telephone-outline" clip-path="url(#clip-path)">
    <path id="Path_7469" data-name="Path 7469" d="M126.593,120.278c-.329-.452-2.008,1.135-3.747,3.543h0c-1.739,2.408-.217,7.3,3.4,10.911l5.631,5.631c3.614,3.614,8.488,5.121,10.878,3.364h0c2.39-1.757,4.022-3.409,3.642-3.686h0l-2.566-1.871h0l-2.455-1.79h0c-.319-.232-1.194.2-1.953.954h0c-.759.759-1.654,1.1-2,.753h0l-4.387-4.387h0l-4.518-4.518h0c-.416-.416-.137-1.369.622-2.128h0c.759-.759,1.165-1.665.906-2.022h0l-1.664-2.291h0l-1.789-2.464Z" transform="translate(-110.817 -109.07)" fill="none" stroke="#2f3058" stroke-linecap="round" stroke-linejoin="round" stroke-width="1"/>
  </g>
</svg>
