<svg xmlns="http://www.w3.org/2000/svg" xmlns:xlink="http://www.w3.org/1999/xlink" width="48.543" height="48.543" viewBox="0 0 48.543 48.543">
  <defs>
    <clipPath id="clip-path">
      <path id="Path_7476" data-name="Path 7476" d="M0,0H48.543V48.543H0Z"/>
    </clipPath>
  </defs>
  <g id="_177-envelope-mail-send-outline" data-name="177-envelope-mail-send-outline" clip-path="url(#clip-path)">
    <g id="Group_858" data-name="Group 858" transform="translate(17.996 16.539)">
      <path id="Path_7471" data-name="Path 7471" d="M194.806,180.02a7.755,7.755,0,0,1-1.009-.852l-6.643-6.656m24.163,0-6.644,6.655a7.729,7.729,0,0,1-.653.585" transform="translate(-186.98 -172.303)" fill="none"/>
      <path id="Path_7472" data-name="Path 7472" d="M187.142,172.512,197.21,182.6a2.846,2.846,0,0,0,4.028,0L211.3,172.515" transform="translate(-186.969 -172.303)" fill="none" stroke="#2f3058" stroke-linecap="round" stroke-linejoin="round" stroke-width="1"/>
      <path id="Path_7473" data-name="Path 7473" d="M185.365,170.356V186.6h24.529V170.358l-24.529,0Z" transform="translate(-185.365 -170.356)" fill="none" stroke="#2f3058" stroke-linecap="round" stroke-linejoin="round" stroke-width="1"/>
    </g>
    <g id="Group_859" data-name="Group 859" transform="translate(18.491 23.474)">
      <path id="Path_7474" data-name="Path 7474" d="M202.39,241.782a8.845,8.845,0,0,1,5.668,2.094l6.061,5.276m-23.663-.1,5.98-5.185a8.884,8.884,0,0,1,5.953-2.083" transform="translate(-190.457 -241.781)" fill="none" stroke="#2f3058" stroke-linecap="round" stroke-linejoin="round" stroke-width="1"/>
    </g>
    <path id="Path_7475" data-name="Path 7475" d="M68.962,170.45H61.113m7.849,4.053H61.113m7.864,4H61.128m7.849,4.053H61.128m7.829,4.005H61.108" transform="translate(-55.175 -153.902)" fill="none" stroke="#2f3058" stroke-linecap="round" stroke-linejoin="round" stroke-width="1"/>
  </g>
</svg>
