<svg id="Behance" xmlns="http://www.w3.org/2000/svg" width="28.367" height="28.367" viewBox="0 0 28.367 28.367">
  <g id="Group_867" data-name="Group 867" transform="translate(6.715 15.229)">
    <g id="Group_866" data-name="Group 866">
      <path id="Path_7481" data-name="Path 7481" d="M125.626,274.872H121.2v3.192h4.43a1.6,1.6,0,1,0,0-3.192Z" transform="translate(-121.196 -274.872)" fill="#2f3058"/>
    </g>
  </g>
  <g id="Group_869" data-name="Group 869" transform="translate(18.315 13.607)">
    <g id="Group_868" data-name="Group 868">
      <path id="Path_7482" data-name="Path 7482" d="M332.465,245.587a1.948,1.948,0,0,0-1.9,1.689h3.792A1.948,1.948,0,0,0,332.465,245.587Z" transform="translate(-330.569 -245.587)" fill="#2f3058"/>
    </g>
  </g>
  <g id="Group_871" data-name="Group 871" transform="translate(6.715 10.762)">
    <g id="Group_870" data-name="Group 870">
      <path id="Path_7483" data-name="Path 7483" d="M125.193,194.245h-4v2.792h4a1.4,1.4,0,1,0,0-2.792Z" transform="translate(-121.196 -194.245)" fill="#2f3058"/>
    </g>
  </g>
  <g id="Group_873" data-name="Group 873">
    <g id="Group_872" data-name="Group 872">
      <path id="Path_7484" data-name="Path 7484" d="M24.263,0H4.1A4.109,4.109,0,0,0,0,4.1V24.263a4.109,4.109,0,0,0,4.1,4.1H24.263a4.109,4.109,0,0,0,4.1-4.1V4.1A4.109,4.109,0,0,0,24.263,0Zm-6.2,9.087h4.3a.838.838,0,0,1,0,1.675h-4.3a.838.838,0,0,1,0-1.675ZM11.145,20.1H5.877a.838.838,0,0,1-.838-.838V9.924a.838.838,0,0,1,.838-.838h4.835a3.069,3.069,0,0,1,2.326,5.073A3.27,3.27,0,0,1,11.145,20.1Zm11.963-3.129a.66.66,0,0,1-.068,0H18.354a2.4,2.4,0,0,0,1.857,1.73,1.585,1.585,0,0,0,1.511-.679A.838.838,0,0,1,23,19.11a3.222,3.222,0,0,1-2.785,1.266,3.478,3.478,0,0,1-2.538-1.291,4.485,4.485,0,0,1-1.129-2.952,4.654,4.654,0,0,1,.93-2.9,3.529,3.529,0,0,1,5.474,0,4.655,4.655,0,0,1,.93,2.9A.837.837,0,0,1,23.108,16.968Z" fill="#2f3058"/>
    </g>
  </g>
</svg>
