<svg id="Facebook" xmlns="http://www.w3.org/2000/svg" width="28.652" height="28.652" viewBox="0 0 28.652 28.652">
  <path id="Path_7477" data-name="Path 7477" d="M24.793,0H3.863A3.861,3.861,0,0,0,0,3.861v20.93a3.861,3.861,0,0,0,3.861,3.861H14.186L14.2,18.413h-2.66a.628.628,0,0,1-.628-.625l-.013-3.3a.628.628,0,0,1,.628-.63h2.655V10.669c0-3.7,2.26-5.716,5.562-5.716h2.709a.628.628,0,0,1,.628.628V8.363a.628.628,0,0,1-.627.628H20.794c-1.8,0-2.143.853-2.143,2.105v2.761H22.6a.628.628,0,0,1,.623.7l-.391,3.3a.628.628,0,0,1-.623.554H18.669l-.018,10.239h6.142a3.861,3.861,0,0,0,3.861-3.861V3.861A3.861,3.861,0,0,0,24.793,0Z" transform="translate(-0.002 0)" fill="#2f3058"/>
</svg>
