<svg xmlns="http://www.w3.org/2000/svg" xmlns:xlink="http://www.w3.org/1999/xlink" width="133.882" height="97.31" viewBox="0 0 133.882 97.31">
  <defs>
    <clipPath id="clip-path">
      <rect id="Rectangle_176" data-name="Rectangle 176" width="63.631" height="39.816" fill="none"/>
    </clipPath>
    <clipPath id="clip-path-2">
      <rect id="Rectangle_175" data-name="Rectangle 175" width="38.823" height="38.828" fill="none"/>
    </clipPath>
  </defs>
  <g id="Group_922" data-name="Group 922" transform="translate(-1349.069 -1068.494)">
    <path id="Path_81" data-name="Path 81" d="M106.581,124.739V62.973a2.909,2.909,0,0,0-2.907-2.907H3.37A2.91,2.91,0,0,0,.463,62.973v61.767Z" transform="translate(1367.691 1015.417)" fill="#0450cf"/>
    <rect id="Rectangle_72" data-name="Rectangle 72" width="96.256" height="54.203" transform="translate(1373.084 1080.466)" fill="#eaf4fe"/>
    <path id="Path_82" data-name="Path 82" d="M0,204.026v8.932a3.115,3.115,0,0,0,3.116,3.113h100.3a3.115,3.115,0,0,0,3.116-3.113v-8.932Z" transform="translate(1367.945 936.249)" fill="#c5e1f9"/>
    <path id="Path_83" data-name="Path 83" d="M114.085,243.946s-.773-.383-1.66-.716c-.947-.355-2.085-.8-2.753-1.122-1.176-.563-1.275-.933-1.714-2.855-.479-2.1-.928-6.531-1.11-8.463H84.627c-.182,1.933-.631,6.363-1.11,8.463-.439,1.921-.539,2.291-1.714,2.855-.663.318-1.784.757-2.722,1.11-.9.342-1.638.6-1.638.6s-.714.4.432.453H113.6c1.078.021.486-.327.486-.327" transform="translate(1325.477 921.531)" fill="#c5e1f9"/>
    <path id="Path_84" data-name="Path 84" d="M115.837,233.121c-.1-.919-.179-1.742-.234-2.333H93.381c-.057.591-.135,1.415-.236,2.333Z" transform="translate(1316.721 921.531)" fill="#9ac7f7"/>
    <path id="Path_85" data-name="Path 85" d="M106.166,71.181H12.275a.927.927,0,0,0-.955.9V77.69h95.8V72.077a.927.927,0,0,0-.956-.9" transform="translate(1361.72 1009.305)" fill="#eaf4fe"/>
    <path id="Path_86" data-name="Path 86" d="M14.415,74.363a.58.58,0,1,1-.582-.58.581.581,0,0,1,.582.58" transform="translate(1360.656 1007.874)" fill="#7dadfd"/>
    <g id="Group_186" data-name="Group 186" transform="translate(1385.232 1085.611)">
      <line id="Line_6" data-name="Line 6" y1="25.269" transform="translate(0 6.91)" fill="none" stroke="#c5e1f9" stroke-width="8.547"/>
      <line id="Line_9" data-name="Line 9" y1="4.737" transform="translate(0 36.523)" fill="none" stroke="#9ac7f7" stroke-width="8.547"/>
      <line id="Line_12" data-name="Line 12" y1="32.179" transform="translate(35.235)" fill="none" stroke="#c5e1f9" stroke-width="8.547"/>
      <line id="Line_13" data-name="Line 13" y1="8.368" transform="translate(23.49 23.811)" fill="none" stroke="#9ac7f7" stroke-width="8.547"/>
      <line id="Line_14" data-name="Line 14" y1="15.794" transform="translate(11.745 16.385)" fill="none" stroke="#9ac7f7" stroke-width="8.547"/>
      <line id="Line_15" data-name="Line 15" y1="4.737" transform="translate(35.235 36.523)" fill="none" stroke="#9ac7f7" stroke-width="8.547"/>
      <line id="Line_16" data-name="Line 16" y1="4.737" transform="translate(23.49 36.523)" fill="none" stroke="#9ac7f7" stroke-width="8.547"/>
      <line id="Line_17" data-name="Line 17" y1="4.737" transform="translate(11.745 36.523)" fill="none" stroke="#9ac7f7" stroke-width="8.547"/>
      <line id="Line_18" data-name="Line 18" y1="25.269" transform="translate(70.467 6.91)" fill="none" stroke="#c5e1f9" stroke-width="8.547"/>
      <line id="Line_19" data-name="Line 19" y1="17.525" transform="translate(58.724 14.307)" fill="none" stroke="#9ac7f7" stroke-width="8.547"/>
      <line id="Line_20" data-name="Line 20" y1="26.126" transform="translate(46.979 6.053)" fill="none" stroke="#9ac7f7" stroke-width="8.547"/>
      <line id="Line_21" data-name="Line 21" y1="4.737" transform="translate(70.467 36.523)" fill="none" stroke="#9ac7f7" stroke-width="8.547"/>
      <line id="Line_22" data-name="Line 22" y1="4.737" transform="translate(58.724 36.523)" fill="none" stroke="#9ac7f7" stroke-width="8.547"/>
      <line id="Line_23" data-name="Line 23" y1="4.737" transform="translate(46.979 36.523)" fill="none" stroke="#9ac7f7" stroke-width="8.547"/>
    </g>
    <path id="Path_87" data-name="Path 87" d="M18.2,74.363a.58.58,0,1,1-.581-.58.581.581,0,0,1,.581.58" transform="translate(1358.573 1007.874)" fill="#7dadfd"/>
    <path id="Path_88" data-name="Path 88" d="M21.986,74.363a.58.58,0,1,1-.581-.58.58.58,0,0,1,.581.58" transform="translate(1356.492 1007.874)" fill="#7dadfd"/>
    <rect id="Rectangle_77" data-name="Rectangle 77" width="74.881" height="2.52" transform="translate(1380.931 1083.631)" fill="#fff"/>
    <path id="Path_89" data-name="Path 89" d="M13.9,80.525l-.911-.913L13.9,78.7l.34.338-.573.575.573.572Z" transform="translate(1360.804 1005.171)" fill="#7dadfd"/>
    <rect id="Rectangle_78" data-name="Rectangle 78" width="1.685" height="0.479" transform="translate(1374.331 1084.542)" fill="#7dadfd"/>
    <path id="Path_90" data-name="Path 90" d="M23.191,80.525l-.338-.34.572-.572-.572-.575.338-.338.913.913Z" transform="translate(1355.378 1005.171)" fill="#7dadfd"/>
    <rect id="Rectangle_79" data-name="Rectangle 79" width="1.685" height="0.479" transform="translate(1377.254 1084.542)" fill="#7dadfd"/>
    <rect id="Rectangle_80" data-name="Rectangle 80" width="7.356" height="2.247" transform="translate(1456.792 1083.631)" fill="#7eb3ff"/>
    <rect id="Rectangle_86" data-name="Rectangle 86" width="12.013" height="0.604" transform="translate(1454.652 1088.581)" fill="#7eb3ff"/>
    <rect id="Rectangle_87" data-name="Rectangle 87" width="9.466" height="0.604" transform="translate(1457.199 1090.03)" fill="#7eb3ff"/>
    <path id="Path_97" data-name="Path 97" d="M153.02,161.512h-.6v-1.969h.6Z" transform="translate(1284.123 960.711)" fill="#0450cf"/>
    <path id="Path_98" data-name="Path 98" d="M153.02,171.333h-.6v-3.323h.6Z" transform="translate(1284.123 956.055)" fill="#0450cf"/>
    <path id="Path_99" data-name="Path 99" d="M153.02,180.261h-.6v-3.167h.6Z" transform="translate(1284.123 951.06)" fill="#0450cf"/>
    <g id="Group_184" data-name="Group 184" transform="translate(1349.069 1068.494)" opacity="0.2">
      <g id="Group_183" data-name="Group 183" transform="translate(0 0)">
        <g id="Group_182" data-name="Group 182" clip-path="url(#clip-path)">
          <path id="Path_253" data-name="Path 253" d="M54.2,58.5a31.812,31.812,0,0,1,58.557,4.639l.015.043a31.656,31.656,0,0,1,1.551,9.568,31.563,31.563,0,0,0-.511-17.8l-.016-.037A31.818,31.818,0,0,0,51.734,64.964,31.966,31.966,0,0,1,54.2,58.5" transform="translate(-51.733 -32.93)" fill="#fff"/>
        </g>
      </g>
    </g>
    <g id="Group_185" data-name="Group 185" transform="translate(1375.738 1075.701) rotate(17)">
      <path id="Path_251" data-name="Path 251" d="M45.258,34.853A23.942,23.942,0,1,0,1.164,31.315a23.933,23.933,0,0,0,44.094,3.538M15.125,41.3A19.462,19.462,0,1,1,42.476,17.96,19.458,19.458,0,0,1,15.125,41.3" transform="translate(8.041 0)" fill="#30363d"/>
      <g id="Group_181" data-name="Group 181" transform="translate(12.58 4.542)" opacity="0.2">
        <g id="Group_180" data-name="Group 180" transform="translate(0 0)">
          <g id="Group_179" data-name="Group 179" clip-path="url(#clip-path-2)">
            <path id="Path_252" data-name="Path 252" d="M28.206,2.129A19.391,19.391,0,0,0,.946,25.377a19.391,19.391,0,0,0,35.731,2.867,19.363,19.363,0,0,0-8.47-26.115" transform="translate(0 0)" fill="#fff"/>
          </g>
        </g>
      </g>
      <path id="Path_254" data-name="Path 254" d="M3.007,28.924A20.581,20.581,0,0,1,42.173,16.264l1.91-.616a.3.3,0,0,1-.014-.042A22.588,22.588,0,0,0,1.1,29.544l1.913-.615Z" transform="translate(9.399 1.356)" fill="#474f59"/>
      <path id="Path_255" data-name="Path 255" d="M5.768,9.131Q7.041,6.719,8.319,4.3A3,3,0,0,0,8.517,2q-.993-.389-1.957-.883A21.856,21.856,0,0,1,4.625,0,3.012,3.012,0,0,0,2.871,1.506Q1.589,3.922.305,6.355c-.8,1.551.048,2.8,1.6,3.572l.008.006c1.551.788,3.07.74,3.851-.8" transform="translate(16.137 41.182)" fill="#30363d"/>
      <rect id="Rectangle_177" data-name="Rectangle 177" width="32.923" height="9.78" transform="matrix(0.456, -0.89, 0.89, 0.456, 0, 75.737)" fill="#2b83fd"/>
      <rect id="Rectangle_178" data-name="Rectangle 178" width="32.923" height="4.04" transform="translate(4.413 77.995) rotate(-62.905)" fill="#0063cb"/>
      <path id="Path_256" data-name="Path 256" d="M8.707,6.544,0,2.091,1.069,0,9.774,4.456Z" transform="translate(13.928 46.428)" fill="#e5e8ec"/>
      <path id="Path_257" data-name="Path 257" d="M3.847,3.4,0,1.436.737,0,4.581,1.968Z" transform="translate(18.064 48.979)" fill="#cdd5d7"/>
    </g>
    <g id="Group_188" data-name="Group 188" transform="translate(1434.923 1101.99)">
      <path id="Path_276" data-name="Path 276" d="M188.522,41.516V25.6a15.918,15.918,0,0,1,15.916,15.918Z" transform="translate(-172.602 -25.598)" fill="#fec12f"/>
      <path id="Path_277" data-name="Path 277" d="M158.57,41.516h15.916A15.918,15.918,0,1,1,158.57,25.6Z" transform="translate(-142.65 -25.598)" fill="#c5e1f9"/>
      <path id="Path_278" data-name="Path 278" d="M188.522,71.462,201.4,80.82a15.273,15.273,0,0,0,3.036-9.358Z" transform="translate(-172.602 -55.544)" fill="#ffab01"/>
      <rect id="Rectangle_185" data-name="Rectangle 185" width="5.715" height="7.134" transform="translate(10.965 54.921)" fill="none" stroke="#9ac7f7" stroke-width="2.779"/>
      <rect id="Rectangle_186" data-name="Rectangle 186" width="5.719" height="16.722" transform="translate(20.384 45.332)" fill="none" stroke="#9ac7f7" stroke-width="2.779"/>
      <rect id="Rectangle_187" data-name="Rectangle 187" width="5.72" height="12.197" transform="translate(29.807 49.857)" fill="none" stroke="#9ac7f7" stroke-width="2.779"/>
      <rect id="Rectangle_188" data-name="Rectangle 188" width="5.716" height="20.595" transform="translate(39.232 41.459)" fill="none" stroke="#9ac7f7" stroke-width="2.779"/>
      <path id="Path_279" data-name="Path 279" d="M203.164,127.713H192.639a.761.761,0,0,0-.764.762v4.373a.76.76,0,0,0,.764.761h4.223l.279.484.759,1.315.76-1.315.278-.484h4.227a.76.76,0,0,0,.762-.761v-4.373a.761.761,0,0,0-.762-.762" transform="translate(-174.791 -92.273)" fill="#9ac7f7"/>
      <line id="Line_24" data-name="Line 24" x2="5.678" transform="translate(20.271 38.428)" fill="none" stroke="#fff" stroke-width="2.779"/>
      <line id="Line_25" data-name="Line 25" x2="38.904" transform="translate(9.125 62.054)" fill="none" stroke="#9ac7f7" stroke-width="2.779"/>
    </g>
  </g>
</svg>
