<svg xmlns="http://www.w3.org/2000/svg" xmlns:xlink="http://www.w3.org/1999/xlink" width="164.282" height="102.402" viewBox="0 0 164.282 102.402">
  <defs>
    <clipPath id="clip-path">
      <rect id="Rectangle_172" data-name="Rectangle 172" width="39.418" height="54.249" fill="none"/>
    </clipPath>
  </defs>
  <g id="Group_923" data-name="Group 923" transform="translate(-1090.691 -1399.802)">
    <path id="Path_81" data-name="Path 81" d="M106.581,124.739V62.973a2.909,2.909,0,0,0-2.907-2.907H3.37A2.91,2.91,0,0,0,.463,62.973v61.767Z" transform="translate(1133.615 1339.736)" fill="#0450cf"/>
    <rect id="Rectangle_72" data-name="Rectangle 72" width="96.256" height="54.203" transform="translate(1139.008 1404.784)" fill="#eaf4fe"/>
    <path id="Path_82" data-name="Path 82" d="M0,204.026v8.932a3.115,3.115,0,0,0,3.116,3.113h100.3a3.115,3.115,0,0,0,3.116-3.113v-8.932Z" transform="translate(1133.87 1260.567)" fill="#c5e1f9"/>
    <path id="Path_83" data-name="Path 83" d="M114.085,243.946s-.773-.383-1.66-.716c-.947-.355-2.085-.8-2.753-1.122-1.176-.563-1.275-.933-1.714-2.855-.479-2.1-.928-6.531-1.11-8.463H84.627c-.182,1.933-.631,6.363-1.11,8.463-.439,1.921-.539,2.291-1.714,2.855-.663.318-1.784.757-2.722,1.11-.9.342-1.638.6-1.638.6s-.714.4.432.453H113.6c1.078.021.486-.327.486-.327" transform="translate(1091.402 1245.849)" fill="#c5e1f9"/>
    <path id="Path_84" data-name="Path 84" d="M115.837,233.121c-.1-.919-.179-1.742-.234-2.333H93.381c-.057.591-.135,1.415-.236,2.333Z" transform="translate(1082.646 1245.85)" fill="#9ac7f7"/>
    <rect id="Rectangle_73" data-name="Rectangle 73" width="95.816" height="47.323" transform="translate(1138.964 1411.28)" fill="#fff"/>
    <rect id="Rectangle_75" data-name="Rectangle 75" width="46.376" height="12.723" transform="translate(1141.072 1444.271)" fill="#d2e3fe"/>
    <rect id="Rectangle_76" data-name="Rectangle 76" width="44.582" height="38.99" transform="translate(1188.394 1418.085)" fill="#7eb3ff"/>
    <path id="Path_85" data-name="Path 85" d="M106.166,71.181H12.275a.927.927,0,0,0-.955.9V77.69h95.8V72.077a.927.927,0,0,0-.956-.9" transform="translate(1127.644 1333.623)" fill="#eaf4fe"/>
    <path id="Path_86" data-name="Path 86" d="M14.415,74.363a.58.58,0,1,1-.582-.58.581.581,0,0,1,.582.58" transform="translate(1126.581 1332.193)" fill="#7dadfd"/>
    <path id="Path_87" data-name="Path 87" d="M18.2,74.363a.58.58,0,1,1-.581-.58.581.581,0,0,1,.581.58" transform="translate(1124.497 1332.193)" fill="#7dadfd"/>
    <path id="Path_88" data-name="Path 88" d="M21.986,74.363a.58.58,0,1,1-.581-.58.58.58,0,0,1,.581.58" transform="translate(1122.417 1332.193)" fill="#7dadfd"/>
    <rect id="Rectangle_77" data-name="Rectangle 77" width="74.881" height="2.52" transform="translate(1146.855 1407.95)" fill="#fff"/>
    <path id="Path_89" data-name="Path 89" d="M13.9,80.525l-.911-.913L13.9,78.7l.34.338-.573.575.573.572Z" transform="translate(1126.728 1329.489)" fill="#7dadfd"/>
    <rect id="Rectangle_78" data-name="Rectangle 78" width="1.685" height="0.479" transform="translate(1140.255 1408.861)" fill="#7dadfd"/>
    <path id="Path_90" data-name="Path 90" d="M23.191,80.525l-.338-.34.572-.572-.572-.575.338-.338.913.913Z" transform="translate(1121.302 1329.489)" fill="#7dadfd"/>
    <rect id="Rectangle_79" data-name="Rectangle 79" width="1.685" height="0.479" transform="translate(1143.178 1408.861)" fill="#7dadfd"/>
    <rect id="Rectangle_80" data-name="Rectangle 80" width="7.356" height="2.247" transform="translate(1222.716 1407.95)" fill="#7eb3ff"/>
    <rect id="Rectangle_81" data-name="Rectangle 81" width="7.44" height="0.806" transform="translate(1150.705 1414.245)" fill="#7eb3ff"/>
    <rect id="Rectangle_82" data-name="Rectangle 82" width="7.439" height="0.806" transform="translate(1159.241 1414.245)" fill="#7eb3ff"/>
    <rect id="Rectangle_83" data-name="Rectangle 83" width="7.44" height="0.806" transform="translate(1167.776 1414.245)" fill="#7eb3ff"/>
    <rect id="Rectangle_84" data-name="Rectangle 84" width="7.44" height="0.806" transform="translate(1176.31 1414.245)" fill="#7eb3ff"/>
    <rect id="Rectangle_85" data-name="Rectangle 85" width="7.441" height="0.806" transform="translate(1184.846 1414.245)" fill="#7eb3ff"/>
    <rect id="Rectangle_86" data-name="Rectangle 86" width="12.013" height="0.604" transform="translate(1220.576 1412.899)" fill="#7eb3ff"/>
    <rect id="Rectangle_87" data-name="Rectangle 87" width="9.466" height="0.604" transform="translate(1223.123 1414.348)" fill="#7eb3ff"/>
    <rect id="Rectangle_88" data-name="Rectangle 88" width="7.867" height="2.151" transform="translate(1141.072 1413.573)" fill="#7eb3ff"/>
    <rect id="Rectangle_89" data-name="Rectangle 89" width="16.78" height="0.837" transform="translate(1143.253 1446.051)" fill="#7eb3ff"/>
    <rect id="Rectangle_90" data-name="Rectangle 90" width="40.714" height="0.629" transform="translate(1143.253 1447.84)" fill="#7eb3ff"/>
    <rect id="Rectangle_91" data-name="Rectangle 91" width="35.555" height="0.628" transform="translate(1143.077 1449.305)" fill="#7eb3ff"/>
    <rect id="Rectangle_92" data-name="Rectangle 92" width="8.163" height="2.231" transform="translate(1142.937 1451.777)" fill="#7eb3ff"/>
    <rect id="Rectangle_93" data-name="Rectangle 93" width="4.471" height="0.627" transform="translate(1144.784 1452.579)" fill="#fff"/>
    <rect id="Rectangle_94" data-name="Rectangle 94" width="15.624" height="0.836" transform="translate(1191.824 1420.565)" fill="#fff"/>
    <rect id="Rectangle_95" data-name="Rectangle 95" width="37.496" height="0.627" transform="translate(1191.824 1422.356)" fill="#eaf4fe"/>
    <rect id="Rectangle_96" data-name="Rectangle 96" width="32.619" height="0.629" transform="translate(1191.824 1423.82)" fill="#eaf4fe"/>
    <rect id="Rectangle_97" data-name="Rectangle 97" width="7.459" height="2.231" transform="translate(1191.824 1426.292)" fill="#fff"/>
    <rect id="Rectangle_98" data-name="Rectangle 98" width="4.084" height="0.628" transform="translate(1193.514 1427.092)" fill="#7eb3ff"/>
    <rect id="Rectangle_99" data-name="Rectangle 99" width="15.624" height="0.835" transform="translate(1191.824 1432.586)" fill="#fff"/>
    <rect id="Rectangle_100" data-name="Rectangle 100" width="37.496" height="0.628" transform="translate(1191.824 1434.376)" fill="#eaf4fe"/>
    <rect id="Rectangle_101" data-name="Rectangle 101" width="32.619" height="0.629" transform="translate(1191.824 1435.841)" fill="#eaf4fe"/>
    <rect id="Rectangle_102" data-name="Rectangle 102" width="7.459" height="2.231" transform="translate(1191.824 1438.313)" fill="#fff"/>
    <rect id="Rectangle_103" data-name="Rectangle 103" width="4.084" height="0.628" transform="translate(1193.514 1439.113)" fill="#7eb3ff"/>
    <rect id="Rectangle_107" data-name="Rectangle 107" width="7.459" height="2.231" transform="translate(1191.824 1450.334)" fill="#fff"/>
    <rect id="Rectangle_108" data-name="Rectangle 108" width="4.084" height="0.628" transform="translate(1193.514 1451.134)" fill="#7eb3ff"/>
    <g id="Group_177" data-name="Group 177" transform="translate(1140.967 1417.472)">
      <rect id="Rectangle_168" data-name="Rectangle 168" width="46.17" height="39.638" fill="#c5e1f9"/>
      <rect id="Rectangle_173" data-name="Rectangle 173" width="46.17" height="39.638" transform="translate(46.17)" fill="#c5e1f9"/>
      <rect id="Rectangle_169" data-name="Rectangle 169" width="37.777" height="34.044" transform="translate(4.196 2.797)" fill="#9ac7f7"/>
      <rect id="Rectangle_174" data-name="Rectangle 174" width="37.777" height="34.044" transform="translate(50.366 2.797)" fill="#9ac7f7"/>
      <path id="Path_204" data-name="Path 204" d="M223.977,42.273a3.031,3.031,0,1,1-3.032-3.031,3.031,3.031,0,0,1,3.032,3.031" transform="translate(-204.801 -30.384)" fill="#c5e1f9"/>
      <path id="Path_249" data-name="Path 249" d="M223.977,42.273a3.031,3.031,0,1,1-3.032-3.031,3.031,3.031,0,0,1,3.032,3.031" transform="translate(-158.631 -30.384)" fill="#c5e1f9"/>
      <path id="Path_205" data-name="Path 205" d="M239.777,70.707l5.438,6.87,5.432,6.867H228.908l5.436-6.867Z" transform="translate(-212.528 -52.501)" fill="#c5e1f9"/>
      <path id="Path_247" data-name="Path 247" d="M239.777,70.707l5.438,6.87,5.432,6.867H228.908l5.436-6.867Z" transform="translate(-166.358 -52.501)" fill="#c5e1f9"/>
      <path id="Path_206" data-name="Path 206" d="M213.079,84.489l3.814,4.82,3.817,4.823H205.446l3.816-4.823Z" transform="translate(-196.036 -62.189)" fill="#c5e1f9"/>
      <path id="Path_248" data-name="Path 248" d="M213.079,84.489l3.814,4.82,3.817,4.823H205.446l3.816-4.823Z" transform="translate(-149.865 -62.189)" fill="#c5e1f9"/>
    </g>
    <g id="Group_178" data-name="Group 178" transform="translate(1142.069 1440.544)">
      <path id="Path_91" data-name="Path 91" d="M178.221,194.476a3.2,3.2,0,0,1-3.193,3.2H155.935a3.2,3.2,0,0,1-3.193-3.2V149.244a3.2,3.2,0,0,1,3.193-3.194h19.093a3.2,3.2,0,0,1,3.193,3.194Z" transform="translate(-152.742 -146.05)" fill="#003e99"/>
      <path id="Path_92" data-name="Path 92" d="M157.028,197.785a3.207,3.207,0,0,1-3.2-3.2V150.341a3.206,3.206,0,0,1,3.2-3.2h18.105a3.207,3.207,0,0,1,3.2,3.2v44.246a3.208,3.208,0,0,1-3.2,3.2Z" transform="translate(-153.34 -146.653)" fill="#0450cf"/>
      <path id="Path_93" data-name="Path 93" d="M173.257,152.533a.429.429,0,1,1-.429-.431.431.431,0,0,1,.429.431" transform="translate(-163.552 -149.378)" fill="#0450cf"/>
      <path id="Path_94" data-name="Path 94" d="M180.892,149.4a.278.278,0,1,1-.28-.278.279.279,0,0,1,.28.278" transform="translate(-167.917 -147.74)" fill="#0450cf"/>
      <path id="Path_95" data-name="Path 95" d="M180.628,152.721a.2.2,0,0,1-.2.2h-2.954a.2.2,0,0,1-.2-.2.2.2,0,0,1,.2-.2h2.954a.206.206,0,0,1,.2.2" transform="translate(-166.231 -149.607)" fill="#0450cf"/>
      <path id="Path_96" data-name="Path 96" d="M180.755,253.3a.365.365,0,0,1-.366.368h-2.7a.366.366,0,0,1-.369-.368v-.735a.37.37,0,0,1,.369-.373h2.7a.369.369,0,0,1,.366.373Z" transform="translate(-166.256 -204.42)" fill="#0450cf"/>
      <rect id="Rectangle_109" data-name="Rectangle 109" width="22.37" height="39.698" transform="translate(1.533 5.861)" fill="#fff"/>
      <rect id="Rectangle_110" data-name="Rectangle 110" width="20.626" height="13.968" transform="translate(2.354 13.214)" fill="#c5e1f9"/>
      <rect id="Rectangle_111" data-name="Rectangle 111" width="20.626" height="17.481" transform="translate(2.354 27.264)" fill="#eaf4fe"/>
      <rect id="Rectangle_112" data-name="Rectangle 112" width="13.506" height="3.602" transform="translate(2.354 7.403)" fill="#9ac7f7"/>
      <rect id="Rectangle_113" data-name="Rectangle 113" width="3.97" height="3.602" transform="translate(19.01 7.403)" fill="#9ac7f7"/>
      <rect id="Rectangle_114" data-name="Rectangle 114" width="11.931" height="1.4" transform="translate(4.273 30.706)" fill="#9ac7f7"/>
      <rect id="Rectangle_115" data-name="Rectangle 115" width="16.446" height="1.052" transform="translate(4.273 33.707)" fill="#9ac7f7"/>
      <rect id="Rectangle_116" data-name="Rectangle 116" width="16.791" height="1.05" transform="translate(4.273 36.162)" fill="#9ac7f7"/>
      <rect id="Rectangle_117" data-name="Rectangle 117" width="13.674" height="3.74" transform="translate(4.273 40.302)" fill="#fec12f"/>
      <rect id="Rectangle_118" data-name="Rectangle 118" width="7.49" height="1.051" transform="translate(7.366 41.645)" fill="#fff"/>
    </g>
    <rect id="Rectangle_171" data-name="Rectangle 171" width="96.446" height="87.53" transform="translate(1090.691 1414.673)" fill="none"/>
    <g id="Group_176" data-name="Group 176" transform="translate(1215.555 1407.252)">
      <path id="Path_239" data-name="Path 239" d="M15.271,103.552l7.109-1.983,5.182,5.256,7.115-26.719L22.386,76.833Z" transform="translate(-10.45 -52.576)" fill="#0561fc"/>
      <path id="Path_240" data-name="Path 240" d="M37.789,105.117l5.182,5.256,7.115-26.719-6.145-1.637Z" transform="translate(-25.859 -56.124)" fill="#0450cf"/>
      <path id="Path_241" data-name="Path 241" d="M48.116,80.1l7.115,26.719,5.182-5.257,7.11,1.982L60.408,76.83Z" transform="translate(-32.925 -52.574)" fill="#0450cf"/>
      <path id="Path_242" data-name="Path 242" d="M48.116,83.651,55.23,110.37l5.182-5.257-6.151-23.1Z" transform="translate(-32.925 -56.121)" fill="#0561fc"/>
      <g id="Group_175" data-name="Group 175">
        <g id="Group_174" data-name="Group 174" clip-path="url(#clip-path)">
          <path id="Path_243" data-name="Path 243" d="M33.679,33.68c-.637.637-2.772-.472-3.472.053-.718.539-.256,2.9-1.028,3.32s-2.519-1.237-3.347-.929-1.059,2.706-1.923,2.893-2.068-1.9-2.95-1.838-1.774,2.3-2.659,2.236-1.447-2.4-2.315-2.59-2.345,1.71-3.179,1.4-.707-2.709-1.491-3.138-2.728.977-3.447.439c-.7-.524.093-2.795-.543-3.432s-2.907.157-3.433-.543c-.538-.718.862-2.676.441-3.447S1.5,27.44,1.193,26.614s1.586-2.316,1.4-3.18S.065,22,0,21.118s2.174-1.774,2.237-2.66S.212,16.378.4,15.51s2.582-1.089,2.893-1.924-1.358-2.563-.931-3.348S5.145,9.93,5.684,9.212c.525-.7-.582-2.837.054-3.474s2.775.471,3.474-.053c.717-.538.255-2.9,1.026-3.321s2.522,1.237,3.348.93S14.645.587,15.507.4s2.068,1.9,2.951,1.837S20.232-.062,21.116,0s1.448,2.4,2.318,2.591,2.345-1.71,3.181-1.4.7,2.71,1.49,3.138,2.729-.979,3.446-.441c.7.526-.093,2.8.545,3.434s2.907-.158,3.432.543c.539.717-.863,2.676-.44,3.446s2.83.664,3.138,1.491-1.585,2.316-1.4,3.18,2.529,1.432,2.591,2.316-2.174,1.774-2.236,2.659,2.025,2.08,1.836,2.95S36.435,25,36.125,25.832s1.358,2.563.93,3.348-2.782.307-3.322,1.026c-.524.7.584,2.837-.054,3.474" transform="translate(0 0)" fill="#fec12f"/>
          <path id="Path_244" data-name="Path 244" d="M40.942,40.94a14.713,14.713,0,1,1,0-20.807,14.713,14.713,0,0,1,0,20.807" transform="translate(-10.829 -10.828)" fill="#ffab01"/>
          <path id="Path_245" data-name="Path 245" d="M43.159,43.154a13.2,13.2,0,1,1,0-18.663,13.2,13.2,0,0,1,0,18.663" transform="translate(-14.118 -14.115)" fill="#fec12f"/>
          <path id="Path_246" data-name="Path 246" d="M51.537,32.869A13.2,13.2,0,0,1,32.875,51.532" transform="translate(-22.496 -22.492)" fill="#ffab01"/>
        </g>
      </g>
    </g>
  </g>
</svg>
