<svg id="Group_170" data-name="Group 170" xmlns="http://www.w3.org/2000/svg" width="141.217" height="129.089" viewBox="0 0 141.217 129.089">
  <path id="Path_125" data-name="Path 125" d="M151.65,109.994V47.4a2.949,2.949,0,0,0-2.946-2.947H47.065A2.95,2.95,0,0,0,44.118,47.4v62.589Z" transform="translate(-23.998 -24.183)" fill="#0450cf"/>
  <rect id="Rectangle_121" data-name="Rectangle 121" width="97.538" height="54.925" transform="translate(25.116 25.325)" fill="#eaf4fe"/>
  <path id="Path_126" data-name="Path 126" d="M43.655,188.422v9.05a3.156,3.156,0,0,0,3.158,3.155H148.452a3.158,3.158,0,0,0,3.157-3.155v-9.05Z" transform="translate(-23.746 -102.491)" fill="#c5e1f9"/>
  <path id="Path_127" data-name="Path 127" d="M158.23,228.515s-.782-.388-1.681-.726c-.96-.361-2.112-.813-2.79-1.138-1.192-.571-1.293-.946-1.738-2.893-.486-2.128-.94-6.616-1.125-8.576H128.38c-.183,1.96-.638,6.448-1.125,8.576-.445,1.947-.545,2.322-1.737,2.893-.672.322-1.806.768-2.76,1.126-.912.347-1.658.61-1.658.61s-.723.4.437.46h36.2c1.09.021.491-.332.491-.332" transform="translate(-65.751 -117.047)" fill="#c5e1f9"/>
  <path id="Path_128" data-name="Path 128" d="M159.794,217.546c-.1-.931-.181-1.766-.238-2.365H137.038c-.056.6-.137,1.434-.238,2.365Z" transform="translate(-74.411 -117.046)" fill="#9ac7f7"/>
  <rect id="Rectangle_122" data-name="Rectangle 122" width="77.06" height="36.449" transform="translate(35.356 4.914)" fill="#ffab01"/>
  <rect id="Rectangle_123" data-name="Rectangle 123" width="38.723" height="39.05" transform="translate(73.694 41.342)" fill="#7eb3ff"/>
  <rect id="Rectangle_124" data-name="Rectangle 124" width="70.247" height="29.509" transform="translate(38.763 8.384)" fill="#fec12f"/>
  <rect id="Rectangle_125" data-name="Rectangle 125" width="77.06" height="5.065" transform="translate(35.356 0)" fill="#eaf4fe"/>
  <line id="Line_1" data-name="Line 1" x2="1.445" transform="translate(36.968 2.48)" fill="none" stroke="#3673d9" stroke-width="3.77"/>
  <line id="Line_2" data-name="Line 2" x2="1.444" transform="translate(39.785 2.48)" fill="none" stroke="#3673d9" stroke-width="3.77"/>
  <line id="Line_3" data-name="Line 3" x2="1.448" transform="translate(42.601 2.48)" fill="none" stroke="#3673d9" stroke-width="3.77"/>
  <rect id="Rectangle_126" data-name="Rectangle 126" width="38.361" height="39.05" transform="translate(35.354 41.342)" fill="#9ac7f7"/>
  <rect id="Rectangle_127" data-name="Rectangle 127" width="30.773" height="31.326" transform="translate(39.148 45.204)" fill="#7eb3ff"/>
  <path id="Path_129" data-name="Path 129" d="M104.26,116.962a2.74,2.74,0,1,1-2.739-2.788,2.764,2.764,0,0,1,2.739,2.788" transform="translate(-53.731 -62.104)" fill="#9ac7f7"/>
  <path id="Path_130" data-name="Path 130" d="M115.078,133.03l4.914,6.323,4.913,6.32H105.254l4.913-6.32Z" transform="translate(-57.252 -72.36)" fill="#9ac7f7"/>
  <path id="Path_131" data-name="Path 131" d="M98.339,141.288l3.449,4.438,3.449,4.438H91.44l3.451-4.438Z" transform="translate(-49.738 -76.853)" fill="#9ac7f7"/>
  <rect id="Rectangle_128" data-name="Rectangle 128" width="17.625" height="1.879" transform="translate(46.9 21.837)" fill="#fff"/>
  <rect id="Rectangle_129" data-name="Rectangle 129" width="17.623" height="1.879" transform="translate(84.103 21.837)" fill="#fff"/>
  <rect id="Rectangle_130" data-name="Rectangle 130" width="17.624" height="1.879" transform="translate(81.262 53.059)" fill="#9ac7f7"/>
  <rect id="Rectangle_131" data-name="Rectangle 131" width="24.149" height="0.954" transform="translate(81.262 58.292)" fill="#9ac7f7"/>
  <rect id="Rectangle_132" data-name="Rectangle 132" width="24.149" height="0.954" transform="translate(81.262 60.605)" fill="#9ac7f7"/>
  <rect id="Rectangle_133" data-name="Rectangle 133" width="24.149" height="0.953" transform="translate(81.262 62.918)" fill="#9ac7f7"/>
  <rect id="Rectangle_134" data-name="Rectangle 134" width="24.149" height="0.954" transform="translate(81.262 65.23)" fill="#9ac7f7"/>
  <rect id="Rectangle_135" data-name="Rectangle 135" width="15.345" height="0.954" transform="translate(81.262 67.543)" fill="#9ac7f7"/>
  <path id="Path_134" data-name="Path 134" d="M239.382,169.034h-5.965l5.965-6.072Z" transform="translate(-126.965 -88.642)" fill="#9ac7f7"/>
  <rect id="Rectangle_137" data-name="Rectangle 137" width="141.217" height="129.09" transform="translate(0)" fill="none"/>
</svg>
