<svg xmlns="http://www.w3.org/2000/svg" xmlns:xlink="http://www.w3.org/1999/xlink" width="368.797" height="347.178" viewBox="0 0 368.797 347.178">
  <defs>
    <clipPath id="clip-path">
      <rect id="Rectangle_35" data-name="Rectangle 35" width="368.797" height="347.178" fill="none"/>
    </clipPath>
    <clipPath id="clip-path-2">
      <rect id="Rectangle_31" data-name="Rectangle 31" width="249.256" height="228.908" fill="none"/>
    </clipPath>
    <linearGradient id="linear-gradient" x1="-566.12" y1="120.08" x2="-565.972" y2="120.08" gradientUnits="objectBoundingBox">
      <stop offset="0" stop-color="#3d0ff7"/>
      <stop offset="0.193" stop-color="#4a16f4"/>
      <stop offset="0.507" stop-color="#6828f0"/>
      <stop offset="0.527" stop-color="#6e28ef"/>
      <stop offset="0.679" stop-color="#9c2bef"/>
      <stop offset="0.814" stop-color="#be2dee"/>
      <stop offset="0.926" stop-color="#d22eee"/>
      <stop offset="1" stop-color="#da2fee"/>
    </linearGradient>
    <linearGradient id="linear-gradient-2" x1="-9.323" y1="2.336" x2="-9.32" y2="2.336" xlink:href="#linear-gradient"/>
    <linearGradient id="linear-gradient-3" x1="-509.087" y1="67.308" x2="-508.939" y2="67.308" xlink:href="#linear-gradient"/>
    <clipPath id="clip-path-3">
      <rect id="Rectangle_32" data-name="Rectangle 32" width="209.413" height="192.241" fill="none"/>
    </clipPath>
    <linearGradient id="linear-gradient-4" x1="-694.748" y1="136.09" x2="-694.566" y2="136.09" xlink:href="#linear-gradient"/>
    <linearGradient id="linear-gradient-5" x1="-11.366" y1="2.59" x2="-11.362" y2="2.59" xlink:href="#linear-gradient"/>
    <linearGradient id="linear-gradient-6" x1="-636.016" y1="81.86" x2="-635.834" y2="81.86" xlink:href="#linear-gradient"/>
    <clipPath id="clip-path-4">
      <rect id="Rectangle_33" data-name="Rectangle 33" width="169.558" height="155.572" fill="none"/>
    </clipPath>
    <linearGradient id="linear-gradient-7" x1="-727.222" y1="130.556" x2="-727.032" y2="130.556" xlink:href="#linear-gradient"/>
    <linearGradient id="linear-gradient-8" x1="-14.338" y1="2.957" x2="-14.334" y2="2.957" xlink:href="#linear-gradient"/>
    <linearGradient id="linear-gradient-9" x1="-677.583" y1="84.863" x2="-677.393" y2="84.863" xlink:href="#linear-gradient"/>
    <clipPath id="clip-path-5">
      <rect id="Rectangle_34" data-name="Rectangle 34" width="129.715" height="118.905" fill="none"/>
    </clipPath>
    <linearGradient id="linear-gradient-10" x1="-954" y1="155.55" x2="-953.75" y2="155.55" xlink:href="#linear-gradient"/>
    <linearGradient id="linear-gradient-11" x1="-19.252" y1="3.568" x2="-19.247" y2="3.568" xlink:href="#linear-gradient"/>
    <linearGradient id="linear-gradient-12" x1="-904.25" y1="110.05" x2="-904" y2="110.05" xlink:href="#linear-gradient"/>
  </defs>
  <g id="Group_876" data-name="Group 876" transform="translate(368.797 347.178) rotate(180)" style="isolation: isolate">
    <g id="Group_64" data-name="Group 64" transform="translate(0 0)">
      <g id="Group_63" data-name="Group 63" clip-path="url(#clip-path)">
        <g id="Group_53" data-name="Group 53" transform="translate(118.905 114.136)" style="mix-blend-mode: lighten;isolation: isolate">
          <g id="Group_52" data-name="Group 52">
            <g id="Group_51" data-name="Group 51" clip-path="url(#clip-path-2)">
              <path id="Path_24" data-name="Path 24" d="M3817.929,970.012l-.469.43a1.908,1.908,0,1,1-2.579-2.812l.469-.43a1.908,1.908,0,0,1,2.579,2.812" transform="translate(-3569.609 -966.381)" fill="url(#linear-gradient)"/>
              <path id="Path_25" data-name="Path 25" d="M3445.084,1190.884l-.927.85a1.907,1.907,0,0,1-2.578-2.812l.927-.85a1.907,1.907,0,1,1,2.578,2.812Zm7.418-6.8-.927.85a1.907,1.907,0,1,1-2.578-2.812l.927-.85a1.908,1.908,0,0,1,2.579,2.812Zm7.418-6.8-.927.85a1.907,1.907,0,1,1-2.578-2.812l.927-.85a1.907,1.907,0,0,1,2.578,2.812Zm7.417-6.8-.927.85a1.908,1.908,0,0,1-2.579-2.812l.927-.849a1.908,1.908,0,0,1,2.579,2.812Zm7.417-6.8-.927.85a1.908,1.908,0,1,1-2.578-2.812l.927-.849a1.907,1.907,0,1,1,2.578,2.812Zm7.418-6.8-.927.85a1.908,1.908,0,0,1-2.578-2.812l.927-.85a1.907,1.907,0,1,1,2.578,2.812Zm7.417-6.8-.927.85a1.908,1.908,0,0,1-2.578-2.812l.927-.85a1.907,1.907,0,1,1,2.578,2.812Zm7.418-6.8-.927.85a1.908,1.908,0,0,1-2.578-2.812l.927-.849a1.907,1.907,0,1,1,2.578,2.812Zm7.418-6.8-.927.85a1.908,1.908,0,1,1-2.578-2.812l.927-.85a1.908,1.908,0,0,1,2.578,2.812Zm7.417-6.8-.927.85a1.907,1.907,0,0,1-2.578-2.812l.927-.85a1.908,1.908,0,0,1,2.579,2.813Zm7.418-6.8-.927.849a1.907,1.907,0,1,1-2.578-2.812l.927-.85a1.908,1.908,0,0,1,2.578,2.813Zm7.418-6.8-.927.85a1.907,1.907,0,1,1-2.578-2.812l.927-.85a1.908,1.908,0,1,1,2.578,2.812Zm7.417-6.8-.927.849a1.907,1.907,0,1,1-2.578-2.812l.926-.85a1.908,1.908,0,1,1,2.579,2.812Zm7.418-6.8-.927.849a1.908,1.908,0,1,1-2.579-2.812l.927-.85a1.908,1.908,0,1,1,2.578,2.812Zm7.418-6.8-.927.849a1.907,1.907,0,0,1-2.578-2.812l.927-.85a1.908,1.908,0,0,1,2.579,2.812Zm7.417-6.8-.927.85a1.908,1.908,0,1,1-2.578-2.812l.927-.85a1.907,1.907,0,1,1,2.578,2.812Zm7.418-6.8-.927.85a1.908,1.908,0,1,1-2.578-2.812l.927-.85a1.907,1.907,0,1,1,2.578,2.812Zm7.418-6.8-.927.85a1.907,1.907,0,1,1-2.578-2.812l.927-.85a1.907,1.907,0,1,1,2.578,2.812Zm7.417-6.8-.927.85a1.907,1.907,0,0,1-2.578-2.812l.927-.85a1.907,1.907,0,0,1,2.578,2.812Zm7.418-6.8-.927.85a1.908,1.908,0,1,1-2.578-2.812l.927-.85a1.907,1.907,0,1,1,2.578,2.812Zm7.418-6.8-.927.85a1.908,1.908,0,0,1-2.578-2.812l.927-.849a1.908,1.908,0,1,1,2.579,2.812Zm7.418-6.8-.927.85a1.908,1.908,0,1,1-2.578-2.812l.927-.849a1.907,1.907,0,1,1,2.578,2.812Zm7.417-6.8-.927.85a1.908,1.908,0,0,1-2.578-2.812l.927-.85a1.908,1.908,0,1,1,2.579,2.812Zm7.418-6.8-.927.85a1.908,1.908,0,1,1-2.578-2.812l.927-.849a1.907,1.907,0,1,1,2.578,2.812Zm7.418-6.8-.927.85a1.908,1.908,0,0,1-2.579-2.812l.927-.849a1.908,1.908,0,0,1,2.579,2.812Zm7.417-6.8-.927.85a1.908,1.908,0,0,1-2.578-2.812l.927-.85a1.908,1.908,0,1,1,2.578,2.812Zm7.418-6.8-.927.85a1.908,1.908,0,0,1-2.578-2.812l.927-.85a1.908,1.908,0,0,1,2.579,2.812Zm7.418-6.8-.927.85a1.908,1.908,0,1,1-2.578-2.812l.927-.85a1.908,1.908,0,1,1,2.578,2.812Zm7.417-6.8-.927.85a1.907,1.907,0,1,1-2.577-2.812l.927-.85a1.908,1.908,0,0,1,2.578,2.812Zm7.418-6.8-.927.849a1.907,1.907,0,1,1-2.578-2.812l.927-.85a1.908,1.908,0,1,1,2.578,2.812Zm7.418-6.8-.927.849a1.907,1.907,0,1,1-2.578-2.812l.927-.85a1.908,1.908,0,1,1,2.578,2.812Zm7.418-6.8-.927.85a1.907,1.907,0,1,1-2.578-2.812l.927-.85a1.908,1.908,0,0,1,2.579,2.812Z" transform="translate(-3433.673 -970.035)" fill="url(#linear-gradient-2)"/>
              <path id="Path_26" data-name="Path 26" d="M3433.665,1322.336l-.469.43a1.908,1.908,0,0,1-2.579-2.812l.469-.43a1.908,1.908,0,1,1,2.579,2.812" transform="translate(-3429.682 -1094.678)" fill="url(#linear-gradient-3)"/>
            </g>
          </g>
        </g>
        <g id="Group_56" data-name="Group 56" transform="translate(158.538 152.181)" style="mix-blend-mode: lighten;isolation: isolate">
          <g id="Group_55" data-name="Group 55">
            <g id="Group_54" data-name="Group 54" clip-path="url(#clip-path-3)">
              <path id="Path_27" data-name="Path 27" d="M3817.985,1029.461l-.312.286a1.59,1.59,0,1,1-2.148-2.344l.312-.286a1.59,1.59,0,0,1,2.148,2.344" transform="translate(-3609.513 -1026.275)" fill="url(#linear-gradient-4)"/>
              <path id="Path_28" data-name="Path 28" d="M3505.717,1214.624l-.631.579a1.59,1.59,0,0,1-2.148-2.344l.631-.578a1.59,1.59,0,0,1,2.148,2.344Zm6.625-6.071-.63.578a1.59,1.59,0,1,1-2.148-2.344l.631-.579a1.59,1.59,0,1,1,2.147,2.344Zm6.626-6.072-.632.578a1.589,1.589,0,1,1-2.147-2.344l.63-.578a1.59,1.59,0,0,1,2.149,2.344Zm6.625-6.071-.63.578a1.59,1.59,0,1,1-2.148-2.344l.63-.579a1.59,1.59,0,1,1,2.148,2.344Zm6.625-6.072-.631.578a1.589,1.589,0,0,1-2.148-2.344l.631-.578a1.59,1.59,0,1,1,2.148,2.344Zm6.625-6.071-.631.578a1.59,1.59,0,0,1-2.148-2.344l.63-.579a1.59,1.59,0,0,1,2.148,2.344Zm6.625-6.072-.631.578a1.589,1.589,0,0,1-2.148-2.344l.631-.578a1.59,1.59,0,1,1,2.148,2.344Zm6.625-6.072-.631.579a1.59,1.59,0,0,1-2.148-2.344l.631-.579a1.59,1.59,0,1,1,2.148,2.344Zm6.626-6.071-.632.578a1.589,1.589,0,0,1-2.148-2.344l.631-.578a1.59,1.59,0,0,1,2.148,2.344Zm6.625-6.072-.63.578a1.59,1.59,0,0,1-2.148-2.344l.631-.579a1.59,1.59,0,1,1,2.148,2.344Zm6.626-6.071-.631.578a1.59,1.59,0,0,1-2.148-2.344l.632-.578a1.59,1.59,0,1,1,2.148,2.344Zm6.625-6.072-.631.579a1.59,1.59,0,0,1-2.148-2.344l.631-.579a1.59,1.59,0,1,1,2.148,2.344Zm6.625-6.071-.631.578a1.59,1.59,0,1,1-2.148-2.344l.631-.578a1.59,1.59,0,1,1,2.148,2.344Zm6.625-6.072-.631.579a1.59,1.59,0,1,1-2.148-2.344l.631-.578a1.59,1.59,0,0,1,2.148,2.344Zm6.625-6.071-.631.578a1.59,1.59,0,0,1-2.148-2.344l.631-.578a1.59,1.59,0,1,1,2.148,2.344Zm6.625-6.072-.631.579a1.59,1.59,0,0,1-2.148-2.344l.631-.578a1.59,1.59,0,1,1,2.148,2.344Zm6.625-6.071-.631.578a1.59,1.59,0,1,1-2.148-2.344l.631-.579a1.59,1.59,0,0,1,2.148,2.344Zm6.625-6.072-.631.579a1.59,1.59,0,0,1-2.148-2.344l.631-.578a1.59,1.59,0,0,1,2.148,2.344Zm6.625-6.071-.631.578a1.59,1.59,0,1,1-2.148-2.344l.631-.579a1.59,1.59,0,1,1,2.148,2.344Zm6.625-6.072-.63.578a1.59,1.59,0,1,1-2.148-2.344l.631-.578a1.589,1.589,0,1,1,2.147,2.344Zm6.626-6.071-.63.578a1.59,1.59,0,1,1-2.148-2.344l.631-.579a1.59,1.59,0,0,1,2.148,2.345Zm6.626-6.072-.632.578a1.59,1.59,0,0,1-2.148-2.344l.631-.578a1.59,1.59,0,1,1,2.149,2.344Zm6.625-6.072-.63.579a1.59,1.59,0,1,1-2.148-2.344l.63-.578a1.59,1.59,0,1,1,2.148,2.344Zm6.625-6.071-.631.578a1.589,1.589,0,0,1-2.147-2.344l.631-.578a1.589,1.589,0,1,1,2.147,2.344Zm6.625-6.072-.631.579a1.589,1.589,0,1,1-2.147-2.344l.631-.579a1.589,1.589,0,1,1,2.147,2.344Zm6.625-6.071-.631.578a1.589,1.589,0,1,1-2.147-2.344l.631-.578a1.589,1.589,0,1,1,2.147,2.344Zm6.625-6.072-.63.579A1.59,1.59,0,1,1,3675.2,1055l.63-.578a1.59,1.59,0,0,1,2.148,2.344Zm6.625-6.071-.631.578a1.59,1.59,0,0,1-2.148-2.344l.632-.578a1.589,1.589,0,0,1,2.147,2.344Zm6.625-6.072-.631.578a1.59,1.59,0,1,1-2.147-2.344l.63-.578a1.59,1.59,0,1,1,2.148,2.344Zm6.625-6.071-.63.578a1.59,1.59,0,0,1-2.149-2.344l.632-.579a1.59,1.59,0,1,1,2.147,2.344Z" transform="translate(-3495.687 -1029.585)" fill="url(#linear-gradient-5)"/>
              <path id="Path_29" data-name="Path 29" d="M3495.476,1325.01l-.312.286a1.59,1.59,0,0,1-2.148-2.345l.312-.286a1.59,1.59,0,1,1,2.148,2.344" transform="translate(-3492.074 -1133.897)" fill="url(#linear-gradient-6)"/>
            </g>
          </g>
        </g>
        <g id="Group_59" data-name="Group 59" transform="translate(198.177 190.227)" style="mix-blend-mode: lighten;isolation: isolate">
          <g id="Group_58" data-name="Group 58">
            <g id="Group_57" data-name="Group 57" clip-path="url(#clip-path-4)">
              <path id="Path_30" data-name="Path 30" d="M3818.073,1088.962l-.157.143a1.59,1.59,0,0,1-2.145-2.346l.156-.143a1.59,1.59,0,0,1,2.146,2.346" transform="translate(-3649.242 -1085.987)" fill="url(#linear-gradient-7)"/>
              <path id="Path_31" data-name="Path 31" d="M3566.221,1238.467l-.318.291a1.589,1.589,0,1,1-2.146-2.344l.318-.291a1.589,1.589,0,1,1,2.147,2.344Zm5.723-5.241-.318.291a1.59,1.59,0,1,1-2.148-2.344l.318-.291a1.59,1.59,0,0,1,2.147,2.344Zm5.723-5.24-.318.291a1.59,1.59,0,0,1-2.147-2.344l.318-.291a1.59,1.59,0,1,1,2.147,2.345Zm5.723-5.241-.318.291a1.59,1.59,0,0,1-2.147-2.345l.318-.291a1.59,1.59,0,0,1,2.147,2.345Zm5.723-5.241-.318.291a1.59,1.59,0,0,1-2.147-2.345l.318-.291a1.59,1.59,0,0,1,2.147,2.345Zm5.723-5.241-.318.291a1.59,1.59,0,1,1-2.147-2.345l.318-.291a1.59,1.59,0,1,1,2.147,2.344Zm5.723-5.241-.318.291a1.59,1.59,0,0,1-2.147-2.344l.318-.291a1.59,1.59,0,1,1,2.147,2.344Zm5.723-5.241-.318.291a1.589,1.589,0,1,1-2.147-2.344l.318-.291a1.589,1.589,0,0,1,2.147,2.344Zm5.723-5.24-.318.291a1.59,1.59,0,0,1-2.147-2.345l.317-.291a1.59,1.59,0,0,1,2.148,2.345Zm5.723-5.241-.318.291a1.59,1.59,0,1,1-2.147-2.345l.318-.291a1.59,1.59,0,0,1,2.147,2.345Zm5.723-5.241-.318.291a1.59,1.59,0,0,1-2.147-2.345l.318-.291a1.59,1.59,0,1,1,2.147,2.345Zm5.723-5.241-.318.291a1.59,1.59,0,1,1-2.147-2.345l.318-.291a1.59,1.59,0,0,1,2.148,2.344Zm5.723-5.241-.318.291a1.589,1.589,0,1,1-2.147-2.344l.318-.291a1.589,1.589,0,1,1,2.146,2.344Zm5.723-5.24-.318.291a1.589,1.589,0,1,1-2.147-2.344l.318-.291a1.59,1.59,0,1,1,2.147,2.345Zm5.723-5.241-.318.291a1.59,1.59,0,1,1-2.146-2.345l.318-.291a1.59,1.59,0,1,1,2.147,2.345Zm5.723-5.241-.318.291a1.59,1.59,0,0,1-2.147-2.345l.318-.291a1.59,1.59,0,0,1,2.147,2.345Zm5.723-5.241-.318.291a1.59,1.59,0,1,1-2.147-2.345l.318-.291a1.59,1.59,0,0,1,2.147,2.345Zm5.723-5.241-.318.291a1.59,1.59,0,1,1-2.147-2.345l.318-.291a1.59,1.59,0,1,1,2.147,2.344Zm5.723-5.241-.318.291a1.589,1.589,0,1,1-2.146-2.344l.318-.291a1.589,1.589,0,1,1,2.146,2.344Zm5.723-5.241-.318.291a1.59,1.59,0,1,1-2.147-2.344l.318-.291a1.59,1.59,0,1,1,2.147,2.344Zm5.722-5.24-.318.291a1.59,1.59,0,1,1-2.147-2.345l.318-.291a1.59,1.59,0,1,1,2.147,2.345Zm5.724-5.241-.318.291a1.59,1.59,0,0,1-2.148-2.345l.318-.291a1.59,1.59,0,0,1,2.148,2.345Zm5.722-5.241-.318.291a1.59,1.59,0,1,1-2.147-2.345l.318-.291a1.59,1.59,0,1,1,2.147,2.345Zm5.723-5.241-.317.291a1.59,1.59,0,0,1-2.147-2.345l.318-.291a1.59,1.59,0,0,1,2.147,2.345Zm5.723-5.241-.318.291a1.589,1.589,0,1,1-2.146-2.344l.318-.291a1.589,1.589,0,1,1,2.147,2.344Zm5.723-5.241-.318.291a1.59,1.59,0,0,1-2.148-2.344l.318-.291a1.59,1.59,0,1,1,2.147,2.344Zm5.723-5.24-.318.291a1.589,1.589,0,1,1-2.147-2.344l.318-.291a1.59,1.59,0,1,1,2.147,2.345Zm5.723-5.241-.318.291a1.59,1.59,0,0,1-2.147-2.345l.318-.291a1.59,1.59,0,1,1,2.147,2.345Z" transform="translate(-3557.473 -1088.904)" fill="url(#linear-gradient-8)"/>
              <path id="Path_32" data-name="Path 32" d="M3557.319,1327.737l-.156.143a1.59,1.59,0,0,1-2.146-2.346l.156-.143a1.59,1.59,0,0,1,2.146,2.346" transform="translate(-3554.29 -1172.936)" fill="url(#linear-gradient-9)"/>
            </g>
          </g>
        </g>
        <g id="Group_62" data-name="Group 62" transform="translate(237.81 228.272)" style="mix-blend-mode: lighten;isolation: isolate">
          <g id="Group_61" data-name="Group 61">
            <g id="Group_60" data-name="Group 60" clip-path="url(#clip-path-5)">
              <path id="Path_33" data-name="Path 33" d="M3817.271,1146.2a1.272,1.272,0,1,1-.9.373,1.278,1.278,0,0,1,.9-.373" transform="translate(-3689.146 -1145.881)" fill="url(#linear-gradient-10)"/>
              <path id="Path_34" data-name="Path 34" d="M3626.5,1262.3h0a1.272,1.272,0,0,1-1.716-1.877h0a1.272,1.272,0,1,1,1.716,1.877Zm4.688-4.286h0a1.272,1.272,0,1,1-1.717-1.877h0a1.272,1.272,0,0,1,1.717,1.877Zm4.686-4.286h0a1.272,1.272,0,0,1-1.716-1.877h0a1.272,1.272,0,0,1,1.716,1.877Zm4.687-4.286h0a1.272,1.272,0,1,1-1.717-1.877h0a1.272,1.272,0,0,1,1.717,1.877Zm4.686-4.286h0a1.272,1.272,0,1,1-1.716-1.877h0a1.272,1.272,0,0,1,1.716,1.877Zm4.687-4.286h0a1.271,1.271,0,1,1-1.716-1.876h0a1.271,1.271,0,1,1,1.716,1.876Zm4.686-4.286h0a1.272,1.272,0,1,1-1.716-1.877h0a1.272,1.272,0,1,1,1.716,1.877Zm4.686-4.286h0a1.272,1.272,0,0,1-1.716-1.877h0a1.272,1.272,0,0,1,1.716,1.877Zm4.687-4.286h0a1.272,1.272,0,0,1-1.717-1.877h0a1.272,1.272,0,0,1,1.717,1.877Zm4.686-4.286h0a1.271,1.271,0,1,1-1.716-1.876h0a1.271,1.271,0,1,1,1.716,1.876Zm4.686-4.286h0a1.272,1.272,0,1,1-1.716-1.877h0a1.272,1.272,0,1,1,1.716,1.877Zm4.687-4.286h0a1.272,1.272,0,0,1-1.717-1.877h0a1.272,1.272,0,0,1,1.717,1.877Zm4.687-4.286h0a1.272,1.272,0,1,1-1.716-1.877h0a1.272,1.272,0,1,1,1.716,1.877Zm4.686-4.286h0a1.271,1.271,0,0,1-1.716-1.877h0a1.271,1.271,0,1,1,1.716,1.877Zm4.687-4.286h0a1.272,1.272,0,0,1-1.717-1.877h0a1.272,1.272,0,1,1,1.717,1.877Zm4.686-4.286h0a1.272,1.272,0,1,1-1.717-1.877h0a1.272,1.272,0,0,1,1.717,1.877Zm4.687-4.286h0a1.272,1.272,0,1,1-1.716-1.877h0a1.272,1.272,0,0,1,1.716,1.877Zm4.687-4.286h0a1.272,1.272,0,1,1-1.717-1.876h0a1.272,1.272,0,0,1,1.717,1.876Zm4.686-4.286h0a1.272,1.272,0,0,1-1.716-1.877h0a1.272,1.272,0,1,1,1.716,1.877Zm4.687-4.286h0a1.272,1.272,0,1,1-1.717-1.877h0a1.272,1.272,0,0,1,1.717,1.877Zm4.686-4.286h0a1.272,1.272,0,1,1-1.717-1.876h0a1.272,1.272,0,0,1,1.717,1.876Zm4.687-4.286h0a1.272,1.272,0,0,1-1.717-1.876h0a1.272,1.272,0,1,1,1.717,1.876Zm4.686-4.286h0a1.272,1.272,0,1,1-1.716-1.877h0a1.272,1.272,0,1,1,1.716,1.877Zm4.686-4.286h0a1.272,1.272,0,0,1-1.716-1.877h0a1.272,1.272,0,1,1,1.716,1.877Zm4.687-4.286h0a1.272,1.272,0,0,1-1.717-1.876h0a1.272,1.272,0,1,1,1.717,1.876Zm4.686-4.286h0a1.272,1.272,0,0,1-1.716-1.877h0a1.272,1.272,0,1,1,1.716,1.877Z" transform="translate(-3619.366 -1148.336)" fill="url(#linear-gradient-11)"/>
              <path id="Path_35" data-name="Path 35" d="M3618.272,1328.2a1.273,1.273,0,1,1-.9.373,1.277,1.277,0,0,1,.9-.373" transform="translate(-3616.682 -1212.155)" fill="url(#linear-gradient-12)"/>
            </g>
          </g>
        </g>
      </g>
    </g>
  </g>
</svg>
