<svg xmlns="http://www.w3.org/2000/svg" xmlns:xlink="http://www.w3.org/1999/xlink" width="55.09" height="47.045" viewBox="0 0 55.09 47.045">
  <defs>
    <clipPath id="clip-path">
      <rect id="Rectangle_241" data-name="Rectangle 241" width="55.09" height="47.045" transform="translate(0 0)" fill="none"/>
    </clipPath>
  </defs>
  <g id="Group_245" data-name="Group 245" transform="translate(0 0)">
    <g id="Group_244" data-name="Group 244" transform="translate(0 0)" clip-path="url(#clip-path)">
      <path id="Path_318" data-name="Path 318" d="M0,22.3V41.131c0,1.447,3.829,2.62,8.553,2.62s8.554-1.173,8.554-2.62V22.3Z" transform="translate(0 3.293)" fill="#0cce6b"/>
      <path id="Path_319" data-name="Path 319" d="M8.553,22.3v2.621C3.829,24.917,0,23.743,0,22.3V26.87a15.855,15.855,0,0,0,4.651,1.253,4.479,4.479,0,0,1,3.9,4.432v8.27a2.779,2.779,0,0,0,3.126,2.745c3.177-.382,5.426-1.331,5.426-2.44V22.3Z" transform="translate(0 3.293)" fill="#118a4c"/>
      <path id="Path_320" data-name="Path 320" d="M17.107,22.633c0,1.447-3.83,2.621-8.553,2.621S0,24.081,0,22.633s3.83-2.621,8.554-2.621,8.553,1.174,8.553,2.621" transform="translate(0 2.956)" fill="#ccd8e5"/>
      <path id="Path_321" data-name="Path 321" d="M16.548,12.29V42.609c0,1.447,3.83,2.62,8.553,2.62s8.554-1.173,8.554-2.62V12.29Z" transform="translate(1.501 1.815)" fill="#0cce6b"/>
      <path id="Path_322" data-name="Path 322" d="M25.1,12.29v2.621c-4.724,0-8.553-1.174-8.553-2.621v4.574A15.857,15.857,0,0,0,21.2,18.117a4.479,4.479,0,0,1,3.9,4.432V42.3a2.779,2.779,0,0,0,3.126,2.745c3.177-.382,5.426-1.331,5.426-2.44V12.29Z" transform="translate(2.444 1.815)" fill="#118a4c"/>
      <path id="Path_323" data-name="Path 323" d="M33.654,12.627c0,1.447-3.83,2.621-8.553,2.621s-8.554-1.174-8.554-2.621,3.83-2.621,8.554-2.621,8.553,1.174,8.553,2.621" transform="translate(2.444 1.478)" fill="#ccd8e5"/>
      <path id="Path_324" data-name="Path 324" d="M33.1,2.284v41.8c0,1.447,3.829,2.62,8.553,2.62s8.554-1.173,8.554-2.62V2.284Z" transform="translate(3.945 0.337)" fill="#0cce6b"/>
      <path id="Path_325" data-name="Path 325" d="M39.662,4.586A19.306,19.306,0,0,1,35.77,3.94L33.1,6.613a14.536,14.536,0,0,0,3.476,1.063Z" transform="translate(4.889 0.582)" fill="#118a4c"/>
      <path id="Path_326" data-name="Path 326" d="M40.548,2.284v.56l.56-.56Z" transform="translate(5.989 0.337)" fill="#156cdd"/>
      <path id="Path_327" data-name="Path 327" d="M34.828,3.86C33.746,3.42,33.1,2.876,33.1,2.283V5.592Z" transform="translate(4.889 0.337)" fill="#118a4c"/>
      <path id="Path_328" data-name="Path 328" d="M40.617,14.453,49.17,5.9V2.284h-.922l-8.169,8.169a4.411,4.411,0,0,1,.538,2.091Z" transform="translate(5.92 0.337)" fill="#118a4c"/>
      <path id="Path_329" data-name="Path 329" d="M49.083,31.825l-8.414,8.414a2.769,2.769,0,0,0,2.609,1.929l5.805-5.805Z" transform="translate(6.007 4.701)" fill="#118a4c"/>
      <path id="Path_330" data-name="Path 330" d="M42.887,2.284,41.06,4.111v.794c-.264,0-.523-.006-.782-.013l-3.2,3.2c.029,0,.054.01.084.014a4.481,4.481,0,0,1,2.859,1.582l7.408-7.408Z" transform="translate(5.476 0.337)" fill="#118a4c"/>
      <path id="Path_331" data-name="Path 331" d="M49.1,31.305V26.767L40.548,35.32v4.538Z" transform="translate(5.989 3.954)" fill="#118a4c"/>
      <path id="Path_332" data-name="Path 332" d="M49.1,26.248V21.71l-8.553,8.553V34.8Z" transform="translate(5.989 3.207)" fill="#118a4c"/>
      <path id="Path_333" data-name="Path 333" d="M49.1,11.076V6.538L40.548,15.09v4.538Z" transform="translate(5.989 0.966)" fill="#118a4c"/>
      <path id="Path_334" data-name="Path 334" d="M48.564,38.975V36.882l-4.379,4.38c2.61-.449,4.379-1.3,4.379-2.286" transform="translate(6.527 5.448)" fill="#118a4c"/>
      <path id="Path_335" data-name="Path 335" d="M49.1,21.191V16.653l-8.553,8.553v4.538Z" transform="translate(5.989 2.46)" fill="#118a4c"/>
      <path id="Path_336" data-name="Path 336" d="M49.1,16.133V11.6l-8.553,8.553v4.538Z" transform="translate(5.989 1.713)" fill="#118a4c"/>
      <path id="Path_337" data-name="Path 337" d="M50.2,2.621c0,1.447-3.83,2.621-8.553,2.621S33.1,4.069,33.1,2.621,36.925,0,41.649,0,50.2,1.174,50.2,2.621" transform="translate(4.888 0)" fill="#ccd8e5"/>
    </g>
  </g>
</svg>
