<svg id="Group_261" data-name="Group 261" xmlns="http://www.w3.org/2000/svg" width="50.626" height="42.278" viewBox="0 0 50.626 42.278">
  <g id="Group_262" data-name="Group 262" transform="translate(0 0)">
    <path id="Path_338" data-name="Path 338" d="M306.815,236.539h-1.447v-1.447h1.447Zm-2.893,0h-1.447v-1.447h1.447Zm-2.893,0h-1.447v-1.447h1.447Zm-2.893,0h-1.447v-1.447h1.447Zm-2.893,0H293.8v-1.447h1.447Zm-2.893,0H290.9v-1.447h1.447Zm15.917,0-.008-1.447a4.2,4.2,0,0,0,1.216-.186l.426,1.382A5.648,5.648,0,0,1,308.266,236.539Zm3.126-.964-.809-1.2a4.228,4.228,0,0,0,.909-.83l1.12.915A5.673,5.673,0,0,1,311.391,235.575Zm2.068-2.533-1.337-.552a4.177,4.177,0,0,0,.3-1.192l1.44.139A5.619,5.619,0,0,1,313.459,233.042Zm-1.1-2.974a4.171,4.171,0,0,0-.413-1.157l1.276-.682a5.615,5.615,0,0,1,.556,1.558Zm-1.145-2.146a4.217,4.217,0,0,0-.986-.736l.687-1.273a5.663,5.663,0,0,1,1.324.989Zm-2.141-1.154a4.237,4.237,0,0,0-.837-.083h-.459v-1.447h.459a5.686,5.686,0,0,1,1.124.112Zm-2.744-.083h-1.447v-1.447h1.447Zm-2.893,0h-.428v-1.447h.428Z" transform="translate(-263.232 -203.884)" fill="#6366f1"/>
    <path id="Path_339" data-name="Path 339" d="M11.694,341.319H10.247v-1.447h1.447Zm-3.026-.1a5.443,5.443,0,0,1-1.564-.562l.691-1.271a4,4,0,0,0,1.149.413Zm-2.885-1.565a5.484,5.484,0,0,1-.962-1.352l1.292-.65a4.039,4.039,0,0,0,.709,1Zm-1.474-2.933a5.537,5.537,0,0,1-.016-1.659l1.432.2a4.091,4.091,0,0,0,.011,1.224ZM6.08,334.1l-1.3-.626a5.482,5.482,0,0,1,.937-1.37l1.057.987A4.035,4.035,0,0,0,6.08,334.1Zm1.65-1.767-.714-1.258a5.444,5.444,0,0,1,1.553-.591l.3,1.415A4,4,0,0,0,7.729,332.331Zm9.662-.523H15.945v-1.447h1.447Zm-2.893,0H13.052v-1.447H14.5Zm-2.893,0H10.158v-1.447H11.6Z" transform="translate(-3.837 -299.042)" fill="#6366f1"/>
    <path id="Path_340" data-name="Path 340" d="M40.666,25.433H.048V1.8A1.8,1.8,0,0,1,1.843,0H38.869a1.8,1.8,0,0,1,1.8,1.8ZM1.494,23.987H39.219V1.8a.35.35,0,0,0-.35-.349H1.843a.35.35,0,0,0-.349.349Z" transform="translate(-0.043 -0.001)" fill="#6366f1"/>
    <rect id="Rectangle_250" data-name="Rectangle 250" width="34.268" height="19.002" transform="translate(3.18 3.204)" fill="#6366f1" opacity="0.23"/>
    <path id="Path_341" data-name="Path 341" d="M38.893,264.8H2.005a2.172,2.172,0,0,1-2-2.062v-3.3H1.447v3.3a.754.754,0,0,0,.558.616H38.893c.146,0,.288-.278.288-.561v-3.359h1.447v3.359A1.875,1.875,0,0,1,38.893,264.8Z" transform="translate(0 -234.744)" fill="#6366f1"/>
    <path id="Path_342" data-name="Path 342" d="M146.375,313.955l-.575-1.327c.325-.141.714-.315.943-.442a1.7,1.7,0,0,0,.236-.137,3.749,3.749,0,0,0,.111-.454,12.674,12.674,0,0,0,.072-2.078c-.007-.542-.012-1.044.016-1.383l1.442.119c-.025.305-.018.757-.011,1.245a13.059,13.059,0,0,1-.1,2.379c-.189.957-.408,1.213-1.012,1.546C147.18,313.6,146.742,313.8,146.375,313.955Z" transform="translate(-131.923 -278.837)" fill="#6366f1"/>
    <path id="Path_343" data-name="Path 343" d="M254.817,314.4c-.369-.16-.813-.362-1.074-.5-.682-.379-.86-.655-1.043-1.58a12.851,12.851,0,0,1-.1-2.354c.006-.477.014-.92-.011-1.225l1.442-.117c.027.338.022.83.015,1.361a12.428,12.428,0,0,0,.072,2.054,2.2,2.2,0,0,0,.127.493c.023.011.084.039.16.081.262.143.658.322.987.464Z" transform="translate(-228.643 -279.276)" fill="#6366f1"/>
    <path id="Line_55" data-name="Line 55" d="M14.493-5.22H0V-6.667H14.493Z" transform="translate(13.067 40.331)" fill="#6366f1"/>
    <path id="Path_344" data-name="Path 344" d="M131.346,41.544a9.588,9.588,0,1,1-9.588-9.587,9.587,9.587,0,0,1,9.588,9.587" transform="translate(-101.445 -28.836)" fill="#fff"/>
  </g>
</svg>
