<svg id="Group_165" data-name="Group 165" xmlns="http://www.w3.org/2000/svg" width="106.535" height="90.322" viewBox="0 0 106.535 90.322">
  <path id="Path_81" data-name="Path 81" d="M106.581,124.739V62.973a2.909,2.909,0,0,0-2.907-2.907H3.37A2.91,2.91,0,0,0,.463,62.973v61.767Z" transform="translate(-0.255 -60.066)" fill="#0450cf"/>
  <rect id="Rectangle_72" data-name="Rectangle 72" width="96.256" height="54.203" transform="translate(5.139 4.982)" fill="#eaf4fe"/>
  <path id="Path_82" data-name="Path 82" d="M0,204.026v8.932a3.115,3.115,0,0,0,3.116,3.113h100.3a3.115,3.115,0,0,0,3.116-3.113v-8.932Z" transform="translate(0 -139.235)" fill="#c5e1f9"/>
  <path id="Path_83" data-name="Path 83" d="M114.085,243.946s-.773-.383-1.66-.716c-.947-.355-2.085-.8-2.753-1.122-1.176-.563-1.275-.933-1.714-2.855-.479-2.1-.928-6.531-1.11-8.463H84.627c-.182,1.933-.631,6.363-1.11,8.463-.439,1.921-.539,2.291-1.714,2.855-.663.318-1.784.757-2.722,1.11-.9.342-1.638.6-1.638.6s-.714.4.432.453H113.6c1.078.021.486-.327.486-.327" transform="translate(-42.468 -153.953)" fill="#c5e1f9"/>
  <path id="Path_84" data-name="Path 84" d="M115.837,233.121c-.1-.919-.179-1.742-.234-2.333H93.381c-.057.591-.135,1.415-.236,2.333Z" transform="translate(-51.224 -153.952)" fill="#9ac7f7"/>
  <rect id="Rectangle_73" data-name="Rectangle 73" width="95.816" height="47.323" transform="translate(5.094 11.478)" fill="#fff"/>
  <rect id="Rectangle_74" data-name="Rectangle 74" width="46.376" height="26.006" transform="translate(7.203 18.288)" fill="#7eb3ff"/>
  <rect id="Rectangle_75" data-name="Rectangle 75" width="46.376" height="12.723" transform="translate(7.203 44.47)" fill="#d2e3fe"/>
  <rect id="Rectangle_76" data-name="Rectangle 76" width="44.582" height="38.99" transform="translate(54.524 18.283)" fill="#7eb3ff"/>
  <path id="Path_85" data-name="Path 85" d="M106.166,71.181H12.275a.927.927,0,0,0-.955.9V77.69h95.8V72.077a.927.927,0,0,0-.956-.9" transform="translate(-6.225 -66.178)" fill="#eaf4fe"/>
  <path id="Path_86" data-name="Path 86" d="M14.415,74.363a.58.58,0,1,1-.582-.58.581.581,0,0,1,.582.58" transform="translate(-7.289 -67.609)" fill="#7dadfd"/>
  <path id="Path_87" data-name="Path 87" d="M18.2,74.363a.58.58,0,1,1-.581-.58.581.581,0,0,1,.581.58" transform="translate(-9.373 -67.609)" fill="#7dadfd"/>
  <path id="Path_88" data-name="Path 88" d="M21.986,74.363a.58.58,0,1,1-.581-.58.58.58,0,0,1,.581.58" transform="translate(-11.453 -67.609)" fill="#7dadfd"/>
  <rect id="Rectangle_77" data-name="Rectangle 77" width="74.881" height="2.52" transform="translate(12.986 8.148)" fill="#fff"/>
  <path id="Path_89" data-name="Path 89" d="M13.9,80.525l-.911-.913L13.9,78.7l.34.338-.573.575.573.572Z" transform="translate(-7.141 -70.313)" fill="#7dadfd"/>
  <rect id="Rectangle_78" data-name="Rectangle 78" width="1.685" height="0.479" transform="translate(6.386 9.059)" fill="#7dadfd"/>
  <path id="Path_90" data-name="Path 90" d="M23.191,80.525l-.338-.34.572-.572-.572-.575.338-.338.913.913Z" transform="translate(-12.567 -70.313)" fill="#7dadfd"/>
  <rect id="Rectangle_79" data-name="Rectangle 79" width="1.685" height="0.479" transform="translate(9.309 9.059)" fill="#7dadfd"/>
  <rect id="Rectangle_80" data-name="Rectangle 80" width="7.356" height="2.247" transform="translate(88.847 8.148)" fill="#7eb3ff"/>
  <rect id="Rectangle_81" data-name="Rectangle 81" width="7.44" height="0.806" transform="translate(16.836 14.444)" fill="#7eb3ff"/>
  <rect id="Rectangle_82" data-name="Rectangle 82" width="7.439" height="0.806" transform="translate(25.371 14.444)" fill="#7eb3ff"/>
  <rect id="Rectangle_83" data-name="Rectangle 83" width="7.44" height="0.806" transform="translate(33.906 14.444)" fill="#7eb3ff"/>
  <rect id="Rectangle_84" data-name="Rectangle 84" width="7.44" height="0.806" transform="translate(42.441 14.444)" fill="#7eb3ff"/>
  <rect id="Rectangle_85" data-name="Rectangle 85" width="7.441" height="0.806" transform="translate(50.977 14.444)" fill="#7eb3ff"/>
  <rect id="Rectangle_86" data-name="Rectangle 86" width="12.013" height="0.604" transform="translate(86.707 13.097)" fill="#7eb3ff"/>
  <rect id="Rectangle_87" data-name="Rectangle 87" width="9.466" height="0.604" transform="translate(89.253 14.546)" fill="#7eb3ff"/>
  <rect id="Rectangle_88" data-name="Rectangle 88" width="7.867" height="2.151" transform="translate(7.202 13.771)" fill="#7eb3ff"/>
  <rect id="Rectangle_89" data-name="Rectangle 89" width="16.78" height="0.837" transform="translate(9.384 46.249)" fill="#7eb3ff"/>
  <rect id="Rectangle_90" data-name="Rectangle 90" width="40.714" height="0.629" transform="translate(9.384 48.038)" fill="#7eb3ff"/>
  <rect id="Rectangle_91" data-name="Rectangle 91" width="35.555" height="0.628" transform="translate(9.208 49.504)" fill="#7eb3ff"/>
  <rect id="Rectangle_92" data-name="Rectangle 92" width="8.163" height="2.231" transform="translate(9.068 51.975)" fill="#7eb3ff"/>
  <rect id="Rectangle_93" data-name="Rectangle 93" width="4.471" height="0.627" transform="translate(10.914 52.777)" fill="#fff"/>
  <rect id="Rectangle_94" data-name="Rectangle 94" width="15.624" height="0.836" transform="translate(57.954 20.763)" fill="#fff"/>
  <rect id="Rectangle_95" data-name="Rectangle 95" width="37.496" height="0.627" transform="translate(57.954 22.554)" fill="#eaf4fe"/>
  <rect id="Rectangle_96" data-name="Rectangle 96" width="32.619" height="0.629" transform="translate(57.954 24.018)" fill="#eaf4fe"/>
  <rect id="Rectangle_97" data-name="Rectangle 97" width="7.459" height="2.231" transform="translate(57.955 26.49)" fill="#fff"/>
  <rect id="Rectangle_98" data-name="Rectangle 98" width="4.084" height="0.628" transform="translate(59.644 27.29)" fill="#7eb3ff"/>
  <rect id="Rectangle_99" data-name="Rectangle 99" width="15.624" height="0.835" transform="translate(57.954 32.785)" fill="#fff"/>
  <rect id="Rectangle_100" data-name="Rectangle 100" width="37.496" height="0.628" transform="translate(57.954 34.574)" fill="#eaf4fe"/>
  <rect id="Rectangle_101" data-name="Rectangle 101" width="32.619" height="0.629" transform="translate(57.954 36.039)" fill="#eaf4fe"/>
  <rect id="Rectangle_102" data-name="Rectangle 102" width="7.459" height="2.231" transform="translate(57.955 38.511)" fill="#fff"/>
  <rect id="Rectangle_103" data-name="Rectangle 103" width="4.084" height="0.628" transform="translate(59.644 39.311)" fill="#7eb3ff"/>
  <rect id="Rectangle_104" data-name="Rectangle 104" width="15.624" height="0.836" transform="translate(57.954 44.805)" fill="#fff"/>
  <rect id="Rectangle_105" data-name="Rectangle 105" width="37.496" height="0.627" transform="translate(57.954 46.596)" fill="#eaf4fe"/>
  <rect id="Rectangle_106" data-name="Rectangle 106" width="32.619" height="0.629" transform="translate(57.954 48.06)" fill="#eaf4fe"/>
  <rect id="Rectangle_107" data-name="Rectangle 107" width="7.459" height="2.231" transform="translate(57.955 50.532)" fill="#fff"/>
  <rect id="Rectangle_108" data-name="Rectangle 108" width="4.084" height="0.628" transform="translate(59.644 51.332)" fill="#7eb3ff"/>
  <path id="Path_91" data-name="Path 91" d="M178.221,194.476a3.2,3.2,0,0,1-3.193,3.2H155.935a3.2,3.2,0,0,1-3.193-3.2V149.244a3.2,3.2,0,0,1,3.193-3.194h19.093a3.2,3.2,0,0,1,3.193,3.194Z" transform="translate(-83.998 -107.352)" fill="#003e99"/>
  <path id="Path_92" data-name="Path 92" d="M157.028,197.785a3.207,3.207,0,0,1-3.2-3.2V150.341a3.206,3.206,0,0,1,3.2-3.2h18.105a3.207,3.207,0,0,1,3.2,3.2v44.246a3.208,3.208,0,0,1-3.2,3.2Z" transform="translate(-84.597 -107.954)" fill="#0450cf"/>
  <path id="Path_93" data-name="Path 93" d="M173.257,152.533a.429.429,0,1,1-.429-.431.431.431,0,0,1,.429.431" transform="translate(-94.809 -110.68)" fill="#0450cf"/>
  <path id="Path_94" data-name="Path 94" d="M180.892,149.4a.278.278,0,1,1-.28-.278.279.279,0,0,1,.28.278" transform="translate(-99.173 -109.042)" fill="#0450cf"/>
  <path id="Path_95" data-name="Path 95" d="M180.628,152.721a.2.2,0,0,1-.2.2h-2.954a.2.2,0,0,1-.2-.2.2.2,0,0,1,.2-.2h2.954a.206.206,0,0,1,.2.2" transform="translate(-97.487 -110.909)" fill="#0450cf"/>
  <path id="Path_96" data-name="Path 96" d="M180.755,253.3a.365.365,0,0,1-.366.368h-2.7a.366.366,0,0,1-.369-.368v-.735a.37.37,0,0,1,.369-.373h2.7a.369.369,0,0,1,.366.373Z" transform="translate(-97.512 -165.721)" fill="#0450cf"/>
  <path id="Path_97" data-name="Path 97" d="M153.02,161.512h-.6v-1.969h.6Z" transform="translate(-83.822 -114.772)" fill="#0450cf"/>
  <path id="Path_98" data-name="Path 98" d="M153.02,171.333h-.6v-3.323h.6Z" transform="translate(-83.822 -119.429)" fill="#0450cf"/>
  <path id="Path_99" data-name="Path 99" d="M153.02,180.261h-.6v-3.167h.6Z" transform="translate(-83.822 -124.424)" fill="#0450cf"/>
  <rect id="Rectangle_109" data-name="Rectangle 109" width="22.37" height="39.698" transform="translate(70.276 44.559)" fill="#fff"/>
  <rect id="Rectangle_110" data-name="Rectangle 110" width="20.626" height="13.968" transform="translate(71.098 51.912)" fill="#c5e1f9"/>
  <rect id="Rectangle_111" data-name="Rectangle 111" width="20.626" height="17.481" transform="translate(71.098 65.963)" fill="#eaf4fe"/>
  <rect id="Rectangle_112" data-name="Rectangle 112" width="13.506" height="3.602" transform="translate(71.098 46.102)" fill="#9ac7f7"/>
  <rect id="Rectangle_113" data-name="Rectangle 113" width="3.97" height="3.602" transform="translate(87.754 46.102)" fill="#9ac7f7"/>
  <rect id="Rectangle_114" data-name="Rectangle 114" width="11.931" height="1.4" transform="translate(73.017 69.405)" fill="#9ac7f7"/>
  <rect id="Rectangle_115" data-name="Rectangle 115" width="16.446" height="1.052" transform="translate(73.017 72.405)" fill="#9ac7f7"/>
  <rect id="Rectangle_116" data-name="Rectangle 116" width="16.791" height="1.05" transform="translate(73.017 74.86)" fill="#9ac7f7"/>
  <rect id="Rectangle_117" data-name="Rectangle 117" width="13.674" height="3.74" transform="translate(73.017 79.001)" fill="#fec12f"/>
  <rect id="Rectangle_118" data-name="Rectangle 118" width="7.49" height="1.051" transform="translate(76.11 80.344)" fill="#fff"/>
</svg>
