<svg id="Group_268" data-name="Group 268" xmlns="http://www.w3.org/2000/svg" xmlns:xlink="http://www.w3.org/1999/xlink" width="54.057" height="48.865" viewBox="0 0 54.057 48.865">
  <defs>
    <clipPath id="clip-path">
      <rect id="Rectangle_262" data-name="Rectangle 262" width="54.057" height="48.865" fill="#6366f1"/>
    </clipPath>
  </defs>
  <g id="Group_267" data-name="Group 267" clip-path="url(#clip-path)">
    <path id="Path_346" data-name="Path 346" d="M254.858,462H238a4.89,4.89,0,0,1-8.752-.255h4.169l1.187-2.055-1.187-2.055h-4.169a4.891,4.891,0,0,1,8.752-.255h16.856a4.89,4.89,0,0,1,8.752.255h-4.169l-1.186,2.055,1.186,2.055h4.169a4.89,4.89,0,0,1-8.752.255" transform="translate(-209.554 -415.722)" fill="#6366f1" opacity="0.17"/>
    <path id="Path_347" data-name="Path 347" d="M28.39,15.979V12.1l-2.3-.492a12.063,12.063,0,0,0-.435-1.4l1.727-1.559-1.94-3.359-2.388.771a12.443,12.443,0,0,0-.971-.922l.756-2.34L19.48.854l-1.708,1.89A12.342,12.342,0,0,0,16.5,2.417L15.979,0H12.1l-.518,2.417a12.3,12.3,0,0,0-1.351.353l-1.59-1.76L5.284,2.949l.708,2.19A12.659,12.659,0,0,0,4.869,6.222l-2.074-.67L.855,8.911,2.39,10.3A12.134,12.134,0,0,0,1.9,12L0,12.411V16.29l1.809.388a12.266,12.266,0,0,0,.485,1.91l-1.284,1.16,1.939,3.359,1.609-.52a12.456,12.456,0,0,0,1.487,1.486L5.552,25.6l3.359,1.939,1.1-1.215a12.351,12.351,0,0,0,2.07.518l.332,1.551h3.879l.359-1.673a12.263,12.263,0,0,0,1.962-.595l1.137,1.259,3.359-1.939-.583-1.8a12.327,12.327,0,0,0,1.269-1.383l1.8.583,1.94-3.359-1.579-1.427a12.1,12.1,0,0,0,.358-1.628Zm-7.834-1.4a6.516,6.516,0,1,1-6.515-6.516,6.514,6.514,0,0,1,6.515,6.516" fill="#6366f1" opacity="0.12"/>
    <path id="Rectangle_259" data-name="Rectangle 259" d="M-6.667-6.667H28.739V21.926H-6.667Zm34.26,1.146H-5.521v26.3H27.593Z" transform="translate(18.586 15.803)" fill="#6366f1"/>
    <path id="Path_348" data-name="Path 348" d="M198.623,175.176H170.829V168.8h27.794Zm1.146-7.519H169.683v8.665h30.086Z" transform="translate(-155.104 -153.252)" fill="#6366f1"/>
    <rect id="Rectangle_260" data-name="Rectangle 260" width="8.985" height="4.839" transform="translate(14.579 24.666)" fill="#6366f1" opacity="0.44"/>
    <path id="Line_26" data-name="Line 26" d="M8.985-5.521H0V-6.667H8.985Z" transform="translate(14.579 37.484)" fill="#6366f1"/>
    <path id="Line_27" data-name="Line 27" d="M8.985-5.521H0V-6.667H8.985Z" transform="translate(14.579 40.235)" fill="#6366f1"/>
    <path id="Line_28" data-name="Line 28" d="M8.985-5.521H0V-6.667H8.985Z" transform="translate(25.13 37.484)" fill="#6366f1"/>
    <path id="Line_29" data-name="Line 29" d="M13.982-5.521H0V-6.667H13.982Z" transform="translate(22.632 24.789)" fill="#6366f1"/>
    <path id="Line_30" data-name="Line 30" d="M8.985-5.521H0V-6.667H8.985Z" transform="translate(25.13 40.235)" fill="#6366f1"/>
    <path id="Line_31" data-name="Line 31" d="M8.985-5.521H0V-6.667H8.985Z" transform="translate(35.68 37.484)" fill="#6366f1"/>
    <path id="Line_32" data-name="Line 32" d="M8.985-5.521H0V-6.667H8.985Z" transform="translate(35.68 40.235)" fill="#6366f1"/>
    <path id="Path_349" data-name="Path 349" d="M300.315,290.77h-6.694v-2.547h6.694Zm1.146-3.693h-8.985v4.839h8.985Z" transform="translate(-267.345 -262.411)" fill="#6366f1"/>
    <path id="Path_350" data-name="Path 350" d="M423.1,290.77H416.41v-2.547H423.1Zm1.146-3.693h-8.985v4.839h8.985Z" transform="translate(-379.584 -262.411)" fill="#6366f1"/>
    <rect id="Rectangle_261" data-name="Rectangle 261" width="35.596" height="4" transform="translate(11.824 5.137)" fill="#6366f1" opacity="0.21"/>
    <path id="Line_33" data-name="Line 33" d="M1.3-5.521H0V-6.667H1.3Z" transform="translate(14.057 12.915)" fill="#6366f1"/>
    <path id="Line_34" data-name="Line 34" d="M1.3-5.521H0V-6.667H1.3Z" transform="translate(16.308 12.915)" fill="#6366f1"/>
    <path id="Line_35" data-name="Line 35" d="M1.3-5.521H0V-6.667H1.3Z" transform="translate(18.559 12.915)" fill="#6366f1"/>
    <path id="Line_36" data-name="Line 36" d="M11.478-5.521H0V-6.667H11.478Z" transform="translate(17.626 18.633)" fill="#6366f1"/>
    <path id="Line_37" data-name="Line 37" d="M1.422-5.521H0V-6.667H1.422Z" transform="translate(14.579 18.633)" fill="#6366f1"/>
    <path id="Line_38" data-name="Line 38" d="M-5.521,4.553H-6.666V0h1.146Z" transform="translate(13.903 34.717)" fill="#6366f1"/>
    <path id="Line_39" data-name="Line 39" d="M4.552-5.521H0V-6.666H4.552Z" transform="translate(5.533 43.087)" fill="#6366f1"/>
    <path id="Path_351" data-name="Path 351" d="M236.489,505.938h-1.146v-1.146h1.146Z" transform="translate(-215.122 -461.42)" fill="#6366f1"/>
    <path id="Line_40" data-name="Line 40" d="M10.845-5.521h-1V-6.666h1Zm-2,0h-1V-6.666h1Zm-2,0h-1V-6.666h1Z" transform="translate(8.373 50.039)" fill="#6366f1"/>
    <path id="Path_352" data-name="Path 352" d="M141.487,505.937h-1.146v-1.146h1.146Z" transform="translate(-128.283 -461.42)" fill="#6366f1"/>
    <path id="Line_41" data-name="Line 41" d="M-5.521,6.945H-6.667V5.927h1.146Z" transform="translate(18.725 35.408)" fill="#6366f1"/>
    <path id="Path_353" data-name="Path 353" d="M141.487,457.044h-1.146V455.9h1.146Z" transform="translate(-128.284 -416.728)" fill="#6366f1"/>
    <path id="Line_42" data-name="Line 42" d="M5.012-5.521h-1V-6.666h1Zm-2,0H2V-6.666h1Zm-2,0H0V-6.666H1Z" transform="translate(14.206 45.838)" fill="#6366f1"/>
    <path id="Path_354" data-name="Path 354" d="M236.489,457.045h-1.146V455.9h1.146Z" transform="translate(-215.122 -416.728)" fill="#6366f1"/>
    <path id="Line_43" data-name="Line 43" d="M-5.521,1.018H-6.667V0h1.146Z" transform="translate(26.887 41.335)" fill="#6366f1"/>
    <path id="Path_355" data-name="Path 355" d="M407.215,514.574l1.638.439,1.638.439-1.2,1.2-1.2,1.2-.439-1.638Z" transform="translate(-372.227 -470.362)" fill="#6366f1"/>
    <path id="Path_356" data-name="Path 356" d="M397.791,505.148l5.192,1.391-3.8,3.8Zm2.979,1.984-1.36-.364.364,1.36Z" transform="translate(-363.612 -461.745)" fill="#6366f1"/>
    <path id="Line_44" data-name="Line 44" d="M-3.316-2.5l-1.4-1.4.81-.81,1.4,1.4Z" transform="translate(41.661 50.605)" fill="#6366f1"/>
  </g>
</svg>
