<svg xmlns="http://www.w3.org/2000/svg" width="155.55" height="85.046" viewBox="0 0 155.55 85.046">
  <g id="Group_924" data-name="Group 924" transform="translate(-658.09 -1402.44)">
    <path id="Path_136" data-name="Path 136" d="M42.34,133.833a4,4,0,0,1-4-4V55.568a4.006,4.006,0,0,1,4-4H150.855a4.007,4.007,0,0,1,4,4v74.265a4.006,4.006,0,0,1-4,4Z" transform="translate(639.267 1350.874)" fill="#cdd5d7"/>
    <path id="Path_137" data-name="Path 137" d="M154.844,130.194a3.626,3.626,0,0,1-3.629,3.625H42.7a3.625,3.625,0,0,1-3.626-3.625V55.93A3.627,3.627,0,0,1,42.7,52.3H151.215a3.627,3.627,0,0,1,3.629,3.628Z" transform="translate(638.907 1350.513)" fill="#0450cf"/>
    <rect id="Rectangle_138" data-name="Rectangle 138" width="104.416" height="66.648" transform="translate(683.657 1408.02)" fill="#fff"/>
    <rect id="Rectangle_139" data-name="Rectangle 139" width="155.55" height="4.55" transform="translate(658.09 1480.226)" fill="#9ac7f7"/>
    <path id="Path_138" data-name="Path 138" d="M.454,213.31c1.838,1.945,5.22,2.71,7.554,2.71h139.98c2.332,0,5.717-.765,7.554-2.71Z" transform="translate(657.867 1271.466)" fill="#69aeeb"/>
    <path id="Path_139" data-name="Path 139" d="M132.031,204.37v.488a1.627,1.627,0,0,0,1.624,1.626h17.883a1.626,1.626,0,0,0,1.624-1.626v-.488Z" transform="translate(593.27 1275.855)" fill="#69aeeb"/>
    <path id="Path_140" data-name="Path 140" d="M85.636,163.607h-.005l-.27.146-.041-.16.34-.182h.179v1.554h-.2Z" transform="translate(616.202 1295.964)" fill="#9ac7f7"/>
    <path id="Path_141" data-name="Path 141" d="M88.459,164.145c0,.528-.2.819-.54.819-.3,0-.509-.285-.515-.8s.224-.808.541-.808.513.292.513.786m-.844.024c0,.4.124.633.316.633.214,0,.318-.25.318-.647s-.1-.634-.317-.634c-.183,0-.317.225-.317.648" transform="translate(615.179 1295.99)" fill="#9ac7f7"/>
    <path id="Path_142" data-name="Path 142" d="M85.043,149.226V149.1l.164-.159c.4-.379.577-.579.578-.813a.277.277,0,0,0-.308-.3.527.527,0,0,0-.329.132l-.067-.149a.684.684,0,0,1,.44-.157A.437.437,0,0,1,86,148.1c0,.287-.208.518-.535.834l-.124.115v.006h.7v.174Z" transform="translate(616.338 1303.704)" fill="#9ac7f7"/>
    <path id="Path_143" data-name="Path 143" d="M88.459,148.433c0,.528-.2.82-.54.82-.3,0-.509-.285-.515-.8s.224-.807.541-.807.513.291.513.786m-.844.024c0,.4.124.634.316.634.214,0,.318-.251.318-.648s-.1-.633-.317-.633c-.183,0-.317.224-.317.648" transform="translate(615.179 1303.703)" fill="#9ac7f7"/>
    <path id="Path_144" data-name="Path 144" d="M85.086,133.27a.708.708,0,0,0,.344.1c.271,0,.354-.172.352-.3,0-.218-.2-.311-.4-.311h-.116V132.6h.116c.154,0,.348-.078.348-.262,0-.125-.079-.235-.273-.235a.577.577,0,0,0-.312.1l-.054-.153a.735.735,0,0,1,.406-.12c.306,0,.445.181.445.371a.385.385,0,0,1-.287.366v.005a.4.4,0,0,1,.346.4c0,.249-.193.466-.567.466a.8.8,0,0,1-.4-.105Z" transform="translate(616.346 1311.418)" fill="#9ac7f7"/>
    <path id="Path_145" data-name="Path 145" d="M88.459,132.719c0,.528-.2.82-.54.82-.3,0-.509-.284-.515-.8s.224-.808.541-.808.513.292.513.786m-.844.024c0,.4.124.633.316.633.214,0,.318-.251.318-.648s-.1-.634-.317-.634c-.183,0-.317.225-.317.648" transform="translate(615.179 1311.418)" fill="#9ac7f7"/>
    <path id="Path_146" data-name="Path 146" d="M85.624,117.823V117.4H84.9v-.138l.693-.992h.227v.965h.218v.165h-.218v.423Zm0-.588v-.518c0-.082,0-.162.008-.244h-.008c-.048.091-.086.158-.128.23l-.38.529v0Z" transform="translate(616.407 1319.108)" fill="#9ac7f7"/>
    <path id="Path_147" data-name="Path 147" d="M88.459,117c0,.528-.2.82-.54.82-.3,0-.509-.284-.515-.8s.224-.808.541-.808.513.292.513.786m-.844.024c0,.4.124.633.316.633.214,0,.318-.251.318-.648s-.1-.633-.317-.633c-.183,0-.317.225-.317.648" transform="translate(615.179 1319.134)" fill="#9ac7f7"/>
    <path id="Path_148" data-name="Path 148" d="M85.963,100.731h-.594l-.058.4a.721.721,0,0,1,.126-.01.653.653,0,0,1,.334.083.442.442,0,0,1,.223.4.54.54,0,0,1-.579.531.768.768,0,0,1-.388-.1l.053-.16a.7.7,0,0,0,.332.086.343.343,0,0,0,.369-.337c0-.2-.136-.344-.447-.344a1.517,1.517,0,0,0-.215.017l.1-.746h.744Z" transform="translate(616.346 1326.823)" fill="#9ac7f7"/>
    <path id="Path_149" data-name="Path 149" d="M88.459,101.289c0,.528-.2.82-.54.82-.3,0-.509-.285-.515-.8s.224-.807.541-.807.513.291.513.786m-.844.024c0,.4.124.634.316.634.214,0,.318-.251.318-.648s-.1-.633-.317-.633c-.183,0-.317.224-.317.648" transform="translate(615.179 1326.848)" fill="#9ac7f7"/>
    <path id="Path_150" data-name="Path 150" d="M85.9,84.966a.715.715,0,0,0-.158.01.631.631,0,0,0-.54.551h.008a.473.473,0,0,1,.843.323.519.519,0,0,1-.517.547c-.332,0-.551-.259-.551-.662a.977.977,0,0,1,.265-.7.848.848,0,0,1,.5-.229,1.025,1.025,0,0,1,.154-.012Zm-.06.9a.316.316,0,0,0-.321-.356.346.346,0,0,0-.3.191.176.176,0,0,0-.024.093c.006.255.122.444.342.444.181,0,.3-.15.3-.373" transform="translate(616.365 1334.561)" fill="#9ac7f7"/>
    <path id="Path_151" data-name="Path 151" d="M88.459,85.575c0,.528-.2.819-.54.819-.3,0-.509-.284-.515-.8s.224-.808.541-.808.513.292.513.787m-.844.023c0,.4.124.633.316.633.214,0,.318-.251.318-.647s-.1-.634-.317-.634c-.183,0-.317.225-.317.648" transform="translate(615.179 1334.564)" fill="#9ac7f7"/>
    <path id="Path_152" data-name="Path 152" d="M103.854,177.412h0l-.237.127-.035-.14.3-.159h.157V178.6h-.178Z" transform="translate(607.239 1289.174)" fill="#9ac7f7"/>
    <path id="Path_153" data-name="Path 153" d="M127.522,178.577v-.113l.142-.141c.349-.33.5-.507.508-.711a.242.242,0,0,0-.27-.265.461.461,0,0,0-.289.115l-.058-.129a.6.6,0,0,1,.384-.139.384.384,0,0,1,.416.4c0,.25-.182.454-.468.729l-.108.1v0h.611v.152Z" transform="translate(595.483 1289.197)" fill="#9ac7f7"/>
    <path id="Path_154" data-name="Path 154" d="M151.749,178.365a.609.609,0,0,0,.3.086c.237,0,.31-.151.308-.264,0-.191-.175-.272-.352-.272h-.1v-.138h.1c.134,0,.3-.069.3-.23,0-.109-.069-.2-.239-.2a.5.5,0,0,0-.272.09l-.048-.134a.65.65,0,0,1,.356-.1c.266,0,.388.159.388.325a.338.338,0,0,1-.25.32v0a.354.354,0,0,1,.3.35c0,.217-.167.407-.495.407a.687.687,0,0,1-.353-.092Z" transform="translate(583.613 1289.197)" fill="#9ac7f7"/>
    <path id="Path_155" data-name="Path 155" d="M176.411,178.6v-.37h-.631v-.121l.605-.868h.2v.845h.191v.145h-.191v.37Zm0-.515v-.454c0-.071,0-.142.005-.213h-.005c-.043.08-.077.138-.113.2l-.332.463v0Z" transform="translate(571.791 1289.174)" fill="#9ac7f7"/>
    <path id="Path_156" data-name="Path 156" d="M200.9,177.395h-.518l-.052.349a.762.762,0,0,1,.111-.008.58.58,0,0,1,.293.073.387.387,0,0,1,.194.348.471.471,0,0,1-.505.465.658.658,0,0,1-.339-.083l.045-.14a.61.61,0,0,0,.291.075.3.3,0,0,0,.321-.295c0-.176-.118-.3-.39-.3a1.36,1.36,0,0,0-.188.014l.086-.652h.65Z" transform="translate(559.858 1289.175)" fill="#9ac7f7"/>
    <path id="Path_157" data-name="Path 157" d="M154.2,126.8H91.85V77.733H154.2Zm-62.233-.123h62.111V77.855H91.972Z" transform="translate(612.997 1338.027)" fill="#9ac7f7"/>
    <rect id="Rectangle_140" data-name="Rectangle 140" width="62.234" height="0.123" transform="translate(704.908 1456.543)" fill="#9ac7f7"/>
    <rect id="Rectangle_141" data-name="Rectangle 141" width="62.234" height="0.122" transform="translate(704.908 1448.385)" fill="#9ac7f7"/>
    <rect id="Rectangle_142" data-name="Rectangle 142" width="62.234" height="0.122" transform="translate(704.908 1440.23)" fill="#9ac7f7"/>
    <rect id="Rectangle_143" data-name="Rectangle 143" width="62.234" height="0.123" transform="translate(704.908 1432.074)" fill="#9ac7f7"/>
    <rect id="Rectangle_144" data-name="Rectangle 144" width="62.234" height="0.122" transform="translate(704.908 1423.918)" fill="#9ac7f7"/>
    <rect id="Rectangle_145" data-name="Rectangle 145" width="0.12" height="48.94" transform="translate(754.635 1415.822)" fill="#9ac7f7"/>
    <rect id="Rectangle_146" data-name="Rectangle 146" width="0.123" height="48.94" transform="translate(742.186 1415.822)" fill="#9ac7f7"/>
    <rect id="Rectangle_147" data-name="Rectangle 147" width="0.12" height="48.94" transform="translate(729.741 1415.822)" fill="#9ac7f7"/>
    <rect id="Rectangle_148" data-name="Rectangle 148" width="0.123" height="48.94" transform="translate(717.294 1415.822)" fill="#9ac7f7"/>
    <rect id="Rectangle_149" data-name="Rectangle 149" width="2.982" height="20.822" transform="translate(709.643 1443.94)" fill="#165670"/>
    <rect id="Rectangle_150" data-name="Rectangle 150" width="2.984" height="20.822" transform="translate(722.074 1443.94)" fill="#feb04c"/>
    <rect id="Rectangle_151" data-name="Rectangle 151" width="2.983" height="20.822" transform="translate(734.511 1443.94)" fill="#0561fc"/>
    <rect id="Rectangle_152" data-name="Rectangle 152" width="2.982" height="20.822" transform="translate(746.945 1443.94)" fill="#165670"/>
    <rect id="Rectangle_153" data-name="Rectangle 153" width="2.983" height="20.822" transform="translate(759.38 1443.94)" fill="#0561fc"/>
    <rect id="Rectangle_154" data-name="Rectangle 154" width="2.982" height="3.648" transform="translate(709.643 1440.291)" fill="#165670"/>
    <rect id="Rectangle_155" data-name="Rectangle 155" width="2.984" height="16.053" transform="translate(722.074 1427.886)" fill="#feb04c"/>
    <rect id="Rectangle_156" data-name="Rectangle 156" width="2.982" height="14.116" transform="translate(746.945 1429.824)" fill="#165670"/>
    <rect id="Rectangle_157" data-name="Rectangle 157" width="2.983" height="26.191" transform="translate(759.38 1417.749)" fill="#0561fc"/>
    <path id="Path_158" data-name="Path 158" d="M113.838,106.665a3.354,3.354,0,1,1-3.358-3.356,3.356,3.356,0,0,1,3.358,3.356" transform="translate(605.495 1325.471)" fill="#feb04c"/>
    <path id="Path_159" data-name="Path 159" d="M111.511,109.748v-.582h-.993v-.19l.952-1.364h.313v1.328h.3v.226h-.3v.582Zm0-.808v-.713c0-.112,0-.223.01-.335h-.01c-.066.125-.119.217-.178.316l-.523.726v.007Z" transform="translate(603.832 1323.358)" fill="#ecf6f8"/>
    <path id="Path_160" data-name="Path 160" d="M115.282,107.854h-.816l-.082.549a1.088,1.088,0,0,1,.174-.012.91.91,0,0,1,.46.114.608.608,0,0,1,.306.549.742.742,0,0,1-.8.73,1.055,1.055,0,0,1-.534-.131l.072-.22a.97.97,0,0,0,.458.119.47.47,0,0,0,.5-.464c0-.275-.186-.473-.613-.473a2.165,2.165,0,0,0-.3.023l.138-1.026h1.023Z" transform="translate(602.124 1323.359)" fill="#ecf6f8"/>
    <line id="Line_4" data-name="Line 4" x2="2.741" transform="translate(719.333 1432.135)" fill="none" stroke="#feb04c" stroke-miterlimit="10" stroke-width="0.586"/>
    <path id="Path_161" data-name="Path 161" d="M187.207,90.641a3.356,3.356,0,1,1-3.357-3.356,3.356,3.356,0,0,1,3.357,3.356" transform="translate(569.476 1333.338)" fill="#0561fc"/>
    <path id="Path_162" data-name="Path 162" d="M185.349,91.833h-.815l-.081.549a1.149,1.149,0,0,1,.174-.012.91.91,0,0,1,.46.114.61.61,0,0,1,.306.548.742.742,0,0,1-.8.73,1.056,1.056,0,0,1-.534-.131l.072-.22a.968.968,0,0,0,.458.119.471.471,0,0,0,.505-.464c0-.275-.187-.473-.614-.473a2.15,2.15,0,0,0-.3.023l.138-1.026h1.022Z" transform="translate(567.724 1331.224)" fill="#ecf6f8"/>
    <path id="Path_163" data-name="Path 163" d="M187.338,93.149a.611.611,0,0,1,.425-.572l0-.01a.529.529,0,0,1-.337-.48.6.6,0,0,1,.661-.569.552.552,0,0,1,.62.526.545.545,0,0,1-.351.5v.01a.592.592,0,0,1,.43.552.657.657,0,0,1-.726.621c-.446,0-.716-.266-.716-.578m1.149-.013c0-.259-.18-.384-.468-.466a.464.464,0,0,0-.385.44.4.4,0,0,0,.427.408.385.385,0,0,0,.426-.381m-.795-1.068c0,.214.161.329.408.4a.421.421,0,0,0,.325-.387.332.332,0,0,0-.362-.349.34.34,0,0,0-.371.341" transform="translate(566.117 1331.259)" fill="#ecf6f8"/>
    <line id="Line_5" data-name="Line 5" x2="2.743" transform="translate(756.683 1423.979)" fill="none" stroke="#0450cf" stroke-miterlimit="10" stroke-width="0.586"/>
    <path id="Path_187" data-name="Path 187" d="M268.867,81.543a21.1,21.1,0,0,1-1.458-3.094c-.055-.409.013-2.375.013-2.375a3.82,3.82,0,0,1,.6,1.671,32.152,32.152,0,0,0,.847,3.8" transform="translate(526.817 1338.842)" fill="#f7b68b"/>
  </g>
</svg>
