<svg xmlns="http://www.w3.org/2000/svg" width="28.652" height="28.652" viewBox="0 0 28.652 28.652">
  <g id="Instagram" transform="translate(0 0.001)">
    <g id="Group_861" data-name="Group 861" transform="translate(21.959 5.301)">
      <g id="Group_860" data-name="Group 860">
        <path id="Path_7478" data-name="Path 7478" d="M393.1,94.739a.7.7,0,1,0,.7.7A.7.7,0,0,0,393.1,94.739Z" transform="translate(-392.401 -94.739)" fill="#2f3058"/>
      </g>
    </g>
    <g id="Group_863" data-name="Group 863" transform="translate(8.159 8.159)">
      <g id="Group_862" data-name="Group 862">
        <path id="Path_7479" data-name="Path 7479" d="M151.971,145.8a6.167,6.167,0,1,0,6.167,6.167A6.174,6.174,0,0,0,151.971,145.8Z" transform="translate(-145.804 -145.804)" fill="#2f3058"/>
      </g>
    </g>
    <g id="Group_865" data-name="Group 865" transform="translate(0 -0.001)">
      <g id="Group_864" data-name="Group 864">
        <path id="Path_7480" data-name="Path 7480" d="M20.8,0H7.855A7.863,7.863,0,0,0,0,7.855V20.8a7.863,7.863,0,0,0,7.855,7.855H20.8A7.863,7.863,0,0,0,28.652,20.8V7.855A7.863,7.863,0,0,0,20.8,0ZM14.326,22.185a7.859,7.859,0,1,1,7.859-7.859A7.868,7.868,0,0,1,14.326,22.185Zm8.329-13.8A2.388,2.388,0,1,1,25.042,6,2.39,2.39,0,0,1,22.655,8.385Z" fill="#2f3058"/>
      </g>
    </g>
  </g>
</svg>
